<svg id="Layer_1" data-name="Layer 1" xmlns="http://www.w3.org/2000/svg" viewBox="0 0 446.67 317">
  <defs>
    <style>
      .cls-1 {
        fill: #c5ebf5;
      }

      .cls-2 {
        fill: #183583;
      }

      .cls-3 {
        fill: #0055dc;
      }

      .cls-4 {
        fill: #fff;
      }

      .cls-5 {
        fill: #e3f4f9;
      }

      .cls-6 {
        fill: #6ecce5;
      }

      .cls-7 {
        fill: #222;
      }

      .cls-8 {
        fill: #003682;
      }
    </style>
  </defs>
  <g>
    <path class="cls-1" d="M82.79,119.6,66.54,115A158.35,158.35,0,0,1,219,0V16.9A141.72,141.72,0,0,0,82.79,119.6Z"/>
    <g>
      <path class="cls-2" d="M110.11,48.91l4.38-4.22.81.83-1.7,1.64,4.49,4.66-1,1-4.49-4.66-1.7,1.64Z"/>
      <path class="cls-2" d="M115.58,43.71l3.72-3.28.77.87-2.69,2.36,1.37,1.56,2.49-2.2.77.87-2.5,2.2,1.38,1.56,2.71-2.38.77.87-3.75,3.3Z"/>
      <path class="cls-2" d="M125,45.59,122.31,38l1.34-1.07,6.86,4.28-1.15.93L127.69,41l-2.24,1.79.69,1.87Zm1.73-5.21L124,38.62l0,0,1.12,3Z"/>
      <path class="cls-2" d="M128.21,33.4l5,3.2.08-.06L132,30.72l1.38-1L137.77,36l-1.08.76-3-4.27-.05,0L134.9,38l-.81.57-4.75-3-.06,0,3,4.28-1.08.77-4.41-6.22Z"/>
      <path class="cls-2" d="M137.77,28.21c-.73.46-.94,1.09-.64,1.58s1.05.4,1.66.19l.7-.23c1.12-.38,2.36-.45,3.07.67s.3,2.48-1.25,3.45-2.91.83-3.77-.43l1.16-.72a1.36,1.36,0,0,0,2,.16c.77-.48,1.06-1.18.71-1.73s-.91-.43-1.72-.17l-.85.27c-1.24.4-2.23.28-2.82-.65-.72-1.13-.18-2.54,1.18-3.39s2.79-.68,3.5.4l-1.13.7A1.26,1.26,0,0,0,137.77,28.21Z"/>
    </g>
    <path class="cls-3" d="M219,317a159,159,0,0,1-34.59-3.79l3.67-16.5A142.27,142.27,0,0,0,219,300.1a141,141,0,0,0,79.17-24.18,142.32,142.32,0,0,0,38.26-38.26,141.52,141.52,0,0,0-17.3-179.29,143.43,143.43,0,0,0-21-17.29A141,141,0,0,0,219,16.9V0a159.41,159.41,0,0,1,31.94,3.22,157.88,157.88,0,0,1,56.69,23.85,158.47,158.47,0,0,1,23.45,243.51,158.53,158.53,0,0,1-50.38,34,157.34,157.34,0,0,1-29.76,9.24A159.41,159.41,0,0,1,219,317Z"/>
    <g>
      <path class="cls-4" d="M259.15,17l4.7-6.29,1.57.5.29,7.84-1.37-.43,0-1.93-2.65-.83-1.13,1.56Zm5.13-1.44-.07-3.14,0,0-1.85,2.55Z"/>
      <path class="cls-4" d="M269.11,12.38l2.6.95a2.35,2.35,0,0,1,1.61,3.2,2.36,2.36,0,0,1-3.3,1.4l-1.33-.49-.86,2.35-1.26-.46Zm1.12,4.45a1.26,1.26,0,0,0,1.81-.77,1.26,1.26,0,0,0-.9-1.75L270,13.89l-.92,2.52Z"/>
      <path class="cls-4" d="M275.5,14.76l2.56,1.06a2.36,2.36,0,0,1,1.47,3.26,2.37,2.37,0,0,1-3.37,1.26l-1.3-.55-1,2.31-1.24-.51Zm.92,4.49a1.27,1.27,0,0,0,1.85-.69,1.25,1.25,0,0,0-.83-1.78l-1.13-.47-1,2.47Z"/>
      <path class="cls-4" d="M281.77,17.42,283,18l-2.65,5.69L283.28,25l-.47,1-4.17-1.94Z"/>
      <path class="cls-4" d="M285,27.18l-1.2-.6L287.15,20l1.2.6Z"/>
      <path class="cls-4" d="M293,25.9a1.67,1.67,0,0,0-.88-2.07c-1.06-.58-2.25-.18-3,1.29s-.49,2.69.56,3.26a1.67,1.67,0,0,0,2.2-.34l1.18.66a3,3,0,0,1-4,.73c-1.71-.93-2.3-2.86-1.15-5s3.1-2.63,4.79-1.71a3,3,0,0,1,1.5,3.78Z"/>
      <path class="cls-4" d="M292.38,31.14l6.09-4.94,1.41.86-1.65,7.67L297,34l.43-1.87-2.37-1.46-1.47,1.24ZM297.7,31l.7-3.06,0,0-2.41,2Z"/>
      <path class="cls-4" d="M302.11,28.44l4.9,3.29-.63.93-1.9-1.27L301,36.6l-1.1-.74,3.5-5.21-1.9-1.27Z"/>
      <path class="cls-4" d="M304.86,39.32l-1.08-.78,4.31-6,1.09.78Z"/>
      <path class="cls-4" d="M308.51,42.18C307,41,306.69,39,308.15,37.1s3.47-2.12,5-.93,1.82,3.2.36,5.09S310,43.37,308.51,42.18Zm3.91-5.06c-.95-.73-2.18-.53-3.21.8s-.92,2.57,0,3.31,2.18.53,3.21-.8S313.38,37.86,312.42,37.12Z"/>
      <path class="cls-4" d="M316.79,48.92l-.91-.78.65-6.09,0,0-3.28,3.82-1-.88,4.83-5.6.91.78-.65,6.09,0,0,3.29-3.82,1,.87Z"/>
      <path class="cls-4" d="M324.1,47.05c-.61-.57-1.25-.62-1.64-.22s-.13,1.08.22,1.6l.38.61c.63,1,1,2.11.11,3s-2.25.88-3.54-.34-1.48-2.54-.5-3.65l.95.91a1.34,1.34,0,0,0,.33,1.9c.63.6,1.36.71,1.8.25s.18-1-.26-1.66l-.46-.74c-.67-1.06-.8-2-.07-2.79.9-1,2.35-.79,3.47.28s1.31,2.46.47,3.38l-.94-.88A1.21,1.21,0,0,0,324.1,47.05Z"/>
    </g>
    <g>
      <circle class="cls-5" cx="218.98" cy="158.5" r="131.56"/>
      <path class="cls-3" d="M219,290.52A131.52,131.52,0,0,1,145.17,268a132.63,132.63,0,0,1-47.83-58.08,132,132,0,0,1,28.3-144.74,132,132,0,0,1,42-28.29A131.88,131.88,0,0,1,292.8,49a132.63,132.63,0,0,1,47.83,58.08,132,132,0,0,1-28.3,144.74,132,132,0,0,1-42,28.29A131.06,131.06,0,0,1,219,290.52Zm0-263.13a130.44,130.44,0,0,0-73.3,22.39,131.47,131.47,0,0,0-47.51,57.68,131.61,131.61,0,0,0,0,102.08A131.56,131.56,0,0,0,168,279.31a130.92,130.92,0,0,0,124.34-12.09,131.47,131.47,0,0,0,47.51-57.68,131.61,131.61,0,0,0,0-102.08A131.56,131.56,0,0,0,270,37.69,130.21,130.21,0,0,0,219,27.39Z"/>
    </g>
    <path class="cls-6" d="M184.39,313.21A158.66,158.66,0,0,1,66.54,115l16.25,4.63a141.73,141.73,0,0,0,61.27,159.08,140.5,140.5,0,0,0,44,18Z"/>
    <g>
      <path class="cls-2" d="M98.81,253.18l-.74-1,2-6,0,0-4.16,3.11-.83-1.1,6.11-4.57.74,1-2,6,0,.05,4.17-3.11.82,1.1Z"/>
      <path class="cls-2" d="M105.82,249.73l3.16,3.82-.9.74-2.28-2.76-1.59,1.32,2.11,2.56-.89.74-2.12-2.56-1.6,1.32,2.3,2.79-.9.73-3.18-3.85Z"/>
      <path class="cls-2" d="M109.63,254.33l4.09,4.51-.86.78-1.58-1.75-4.8,4.34-.92-1,4.8-4.34-1.59-1.75Z"/>
      <path class="cls-2" d="M114,259.27l1.06,1-2.95,5,0,.05,5-3,1,.95-2.88,5,0,.05,4.91-3,1.06,1-6.88,3.94-1-1,2.66-4.89,0,0-4.85,2.75-1-1Z"/>
      <path class="cls-2" d="M119.08,274.66c-1.52-1.31-1.69-3.4-.08-5.26s3.71-2,5.22-.65,1.69,3.39.07,5.26S120.58,276,119.08,274.66Zm4.33-5c-.94-.81-2.22-.67-3.36.64s-1.1,2.59-.16,3.41,2.21.67,3.35-.64S124.34,270.5,123.41,269.68Z"/>
      <path class="cls-2" d="M127.76,271.9l2.26,1.77a2.37,2.37,0,0,1,.6,3.58,2.16,2.16,0,0,1-2.41.85l-.57,3.4-1.21-.95.54-3.12-1.1-.87-1.73,2.2-1.09-.86Zm-.18,4.54c.8.63,1.44.58,1.94-.06s.43-1.3-.38-1.94l-1-.78-1.57,2Z"/>
      <path class="cls-2" d="M133.1,276.05l1.13.8-2,2.86.07.05,4.46-1.13,1.38,1-4.39,1.08,0,5.15-1.35-1,0-4-1.27.33-1.31,1.85-1.13-.8Z"/>
    </g>
    <g>
      <path class="cls-7" d="M154.46,241.28a1.56,1.56,0,0,0-1.61-1.21c-1,0-1.84.8-1.84,2.28s.81,2.28,1.84,2.28a1.56,1.56,0,0,0,1.61-1.21h.68a2.21,2.21,0,0,1-2.29,1.85c-1.45,0-2.51-1.12-2.51-2.92s1.06-2.93,2.51-2.93a2.21,2.21,0,0,1,2.29,1.86Z"/>
      <path class="cls-7" d="M156.82,245.2h-.65v-5.7h.65Z"/>
      <path class="cls-7" d="M157.82,243.08a2,2,0,1,1,1.94,2.21A2,2,0,0,1,157.82,243.08Zm3.22,0c0-.85-.4-1.62-1.28-1.62s-1.28.77-1.28,1.62.4,1.62,1.28,1.62S161,243.94,161,243.08Z"/>
      <path class="cls-7" d="M165.39,240.93H166v4.27h-.65v-.73h0a1.32,1.32,0,0,1-1.27.78c-.8,0-1.38-.52-1.38-1.61v-2.71h.66v2.67a.93.93,0,0,0,.93,1,1.12,1.12,0,0,0,1.11-1.17Z"/>
      <path class="cls-7" d="M167,243.07c0-1.34.75-2.2,1.83-2.2a1.29,1.29,0,0,1,1.23.73h.06v-2.1h.65v5.7h-.63v-.66h-.08a1.32,1.32,0,0,1-1.24.75C167.79,245.29,167,244.43,167,243.07Zm3.13,0c0-1-.43-1.6-1.23-1.6s-1.24.7-1.24,1.6.42,1.64,1.24,1.64S170.17,244,170.17,243.06Z"/>
      <path class="cls-7" d="M174,241.48h-.95v3.72h-.66v-3.72h-.69v-.55h.69v-.59a1.11,1.11,0,0,1,1.2-1.11,1.45,1.45,0,0,1,.63.12l-.19.56a1.15,1.15,0,0,0-.37-.06c-.43,0-.61.22-.61.64v.44H174Z"/>
      <path class="cls-7" d="M175.58,245.2h-.65v-5.7h.65Z"/>
      <path class="cls-7" d="M176.58,244c0-1,.87-1.15,1.66-1.25s1.1-.07,1.1-.39v0a.79.79,0,0,0-.9-.87,1.15,1.15,0,0,0-1.11.64l-.62-.22a1.72,1.72,0,0,1,1.71-1,1.41,1.41,0,0,1,1.58,1.51v2.82h-.66v-.58h0a1.34,1.34,0,0,1-1.27.68A1.33,1.33,0,0,1,176.58,244Zm2.76-.33v-.6a3.34,3.34,0,0,1-1.13.24c-.51.07-1,.23-1,.73s.38.69.9.69A1.1,1.1,0,0,0,179.34,243.65Z"/>
      <path class="cls-7" d="M181.2,240.93h.63v.64h0a1.16,1.16,0,0,1,1.11-.71h.34v.67a1.86,1.86,0,0,0-.4,0,1,1,0,0,0-1.08,1v2.71h-.65Z"/>
      <path class="cls-7" d="M183.78,243.09a2,2,0,0,1,1.92-2.22c.89,0,1.84.54,1.84,2.14v.27h-3.1a1.3,1.3,0,0,0,1.33,1.42,1.06,1.06,0,0,0,1.07-.67l.63.18a1.66,1.66,0,0,1-1.7,1.08A2,2,0,0,1,183.78,243.09Zm3.09-.37a1.16,1.16,0,0,0-1.17-1.26,1.27,1.27,0,0,0-1.26,1.26Z"/>
      <path class="cls-7" d="M152.43,249.43c-.76,0-1.26.4-1.26.95s.68.83,1.1.94l.58.16c.59.15,1.6.5,1.6,1.57,0,.92-.75,1.64-2.06,1.64s-2-.63-2-1.57h.71c.05.65.65.95,1.33.95s1.39-.41,1.39-1-.53-.77-1.13-.94l-.7-.2c-.89-.26-1.45-.71-1.45-1.48a2,2,0,0,1,3.87-.09h-.67C153.64,249.76,153.11,249.43,152.43,249.43Z"/>
      <path class="cls-7" d="M155.49,250.32h.64V251h.08a1.3,1.3,0,0,1,1.23-.74c1.08,0,1.82.86,1.82,2.21s-.74,2.21-1.81,2.21a1.3,1.3,0,0,1-1.24-.75h-.06v2.26h-.66Zm1.87,3.77c.83,0,1.25-.72,1.25-1.63s-.41-1.61-1.25-1.61-1.22.65-1.22,1.61S156.57,254.09,157.36,254.09Z"/>
      <path class="cls-7" d="M160.06,252.49a2,2,0,0,1,1.93-2.23c.89,0,1.83.55,1.83,2.14v.28h-3.1a1.29,1.29,0,0,0,1.34,1.41,1,1,0,0,0,1.06-.67l.64.18a1.66,1.66,0,0,1-1.7,1.08A2,2,0,0,1,160.06,252.49Zm3.1-.38a1.16,1.16,0,0,0-1.17-1.26,1.29,1.29,0,0,0-1.27,1.26Z"/>
      <path class="cls-7" d="M164.62,252.48a2,2,0,0,1,1.93-2.22,1.6,1.6,0,0,1,1.69,1.34h-.66a1,1,0,0,0-1-.75c-.77,0-1.28.64-1.28,1.61s.5,1.63,1.28,1.63a1,1,0,0,0,1-.74h.66a1.59,1.59,0,0,1-1.68,1.33A2,2,0,0,1,164.62,252.48Z"/>
      <path class="cls-7" d="M171.05,250.88h-.91v2.49c0,.55.28.64.57.64a1.5,1.5,0,0,0,.29,0l.13.59a1.47,1.47,0,0,1-.49.08,1.1,1.1,0,0,1-1.16-1.1v-2.67h-.64v-.56h.64v-1h.66v1h.91Z"/>
      <path class="cls-7" d="M172,250.32h.63V251h.05a1.15,1.15,0,0,1,1.11-.72h.35v.67a2.35,2.35,0,0,0-.4,0,1,1,0,0,0-1.08,1v2.7H172Z"/>
      <path class="cls-7" d="M177.65,250.32h.65v4.27h-.65v-.72h-.05a1.34,1.34,0,0,1-1.27.78c-.8,0-1.38-.53-1.38-1.62v-2.71h.66V253a.93.93,0,0,0,.93,1,1.11,1.11,0,0,0,1.11-1.17Z"/>
      <path class="cls-7" d="M179.5,250.32h.64V251h.05a1.15,1.15,0,0,1,1.15-.73,1.17,1.17,0,0,1,1.14.73h.05a1.36,1.36,0,0,1,1.28-.73c.76,0,1.3.47,1.3,1.47v2.86h-.66v-2.86a.8.8,0,0,0-.87-.88.89.89,0,0,0-.94,1v2.78H182v-2.92a.79.79,0,0,0-.84-.82,1,1,0,0,0-1,1.07v2.67h-.66Z"/>
    </g>
    <g>
      <path class="cls-7" d="M112.48,185.18a1.55,1.55,0,0,0-1.6-1.22c-1,0-1.84.8-1.84,2.28s.81,2.28,1.84,2.28a1.54,1.54,0,0,0,1.6-1.21h.69a2.21,2.21,0,0,1-2.29,1.86c-1.45,0-2.51-1.12-2.51-2.93s1.06-2.92,2.51-2.92a2.21,2.21,0,0,1,2.29,1.86Z"/>
      <path class="cls-7" d="M114.85,189.09h-.65V183.4h.65Z"/>
      <path class="cls-7" d="M115.85,187a2,2,0,1,1,1.94,2.2A2,2,0,0,1,115.85,187Zm3.22,0c0-.86-.4-1.63-1.28-1.63s-1.28.77-1.28,1.63.4,1.61,1.28,1.61S119.07,187.83,119.07,187Z"/>
      <path class="cls-7" d="M123.42,184.82h.65v4.27h-.65v-.72h0a1.34,1.34,0,0,1-1.27.78c-.8,0-1.38-.53-1.38-1.62v-2.71h.66v2.67a.93.93,0,0,0,.93,1,1.11,1.11,0,0,0,1.11-1.17Z"/>
      <path class="cls-7" d="M125.07,187c0-1.35.75-2.21,1.83-2.21a1.3,1.3,0,0,1,1.23.74h.06v-2.1h.65v5.69h-.63v-.65h-.08a1.32,1.32,0,0,1-1.25.74C125.82,189.18,125.07,188.32,125.07,187Zm3.13,0c0-1-.43-1.61-1.23-1.61s-1.24.7-1.24,1.61.42,1.63,1.24,1.63S128.2,187.92,128.2,187Z"/>
      <path class="cls-7" d="M132,185.38h-.95v3.71h-.66v-3.71h-.69v-.56h.69v-.59a1.11,1.11,0,0,1,1.2-1.1,1.61,1.61,0,0,1,.62.11l-.18.57a1.08,1.08,0,0,0-.37-.07c-.44,0-.61.22-.61.65v.43H132Z"/>
      <path class="cls-7" d="M133.61,189.09H133V183.4h.65Z"/>
      <path class="cls-7" d="M134.61,187.88c0-1,.87-1.16,1.66-1.26s1.1-.07,1.1-.39v0a.79.79,0,0,0-.9-.87,1.15,1.15,0,0,0-1.11.65l-.62-.22a1.73,1.73,0,0,1,1.71-1,1.41,1.41,0,0,1,1.58,1.52v2.81h-.66v-.58h0a1.34,1.34,0,0,1-1.27.68A1.32,1.32,0,0,1,134.61,187.88Zm2.76-.33v-.61a3.15,3.15,0,0,1-1.13.25c-.51.07-1,.22-1,.72s.38.69.9.69A1.09,1.09,0,0,0,137.37,187.55Z"/>
      <path class="cls-7" d="M139.23,184.82h.63v.65h0a1.15,1.15,0,0,1,1.11-.72h.34v.67a2.11,2.11,0,0,0-.4,0,1,1,0,0,0-1.08,1v2.7h-.65Z"/>
      <path class="cls-7" d="M141.81,187a2,2,0,0,1,1.92-2.23c.89,0,1.84.55,1.84,2.14v.28h-3.1a1.29,1.29,0,0,0,1.33,1.41,1.05,1.05,0,0,0,1.07-.67l.63.18a1.65,1.65,0,0,1-1.7,1.08A2,2,0,0,1,141.81,187Zm3.09-.38a1.16,1.16,0,0,0-1.17-1.26,1.27,1.27,0,0,0-1.26,1.26Z"/>
      <path class="cls-7" d="M103.52,192.79l1.93,4.73h.07l1.93-4.73h.83v5.7h-.65v-4.33h0l-1.78,4.33h-.63l-1.78-4.33h0v4.33h-.65v-5.7Z"/>
      <path class="cls-7" d="M109.36,197.27c0-1,.87-1.15,1.66-1.25s1.1-.08,1.1-.39v0a.79.79,0,0,0-.9-.86,1.15,1.15,0,0,0-1.11.64l-.62-.22a1.72,1.72,0,0,1,1.71-1,1.4,1.4,0,0,1,1.58,1.51v2.82h-.66v-.58h0a1.49,1.49,0,0,1-2.73-.64Zm2.76-.33v-.6a3.34,3.34,0,0,1-1.13.24c-.51.07-1,.23-1,.73s.38.69.9.69A1.1,1.1,0,0,0,112.12,196.94Z"/>
      <path class="cls-7" d="M114,199.32l.52-.37a1.34,1.34,0,0,0,1.22.65c.69,0,1.19-.32,1.19-1v-.86h0a1.31,1.31,0,0,1-1.25.72,1.85,1.85,0,0,1-1.81-2.09c0-1.31.74-2.17,1.82-2.17a1.33,1.33,0,0,1,1.25.73h.07v-.68h.63v4.4c0,1.1-.82,1.57-1.85,1.57A1.86,1.86,0,0,1,114,199.32Zm2.94-3c0-.93-.42-1.57-1.22-1.57s-1.24.7-1.24,1.57.42,1.51,1.24,1.51S116.9,197.26,116.9,196.32Z"/>
      <path class="cls-7" d="M118.62,193.06a.47.47,0,1,1,.46.44A.46.46,0,0,1,118.62,193.06Zm.13,1.15h.66v4.28h-.66Z"/>
      <path class="cls-7" d="M120.41,196.37a2,2,0,0,1,1.92-2.21,1.59,1.59,0,0,1,1.69,1.33h-.65a1,1,0,0,0-1-.74c-.77,0-1.28.63-1.28,1.6s.5,1.64,1.28,1.64a1,1,0,0,0,1-.75H124a1.57,1.57,0,0,1-1.68,1.33A2,2,0,0,1,120.41,196.37Z"/>
      <path class="cls-7" d="M127,192.79h4.27v.61h-1.79v5.09h-.69V193.4H127Z"/>
      <path class="cls-7" d="M131.76,194.21h.63v.65h.05a1.16,1.16,0,0,1,1.11-.71h.35v.67a2.08,2.08,0,0,0-.4-.05,1,1,0,0,0-1.08,1v2.71h-.66Z"/>
      <path class="cls-7" d="M134.47,197.27c0-1,.87-1.15,1.66-1.25s1.1-.08,1.1-.39v0a.79.79,0,0,0-.9-.86,1.15,1.15,0,0,0-1.11.64l-.62-.22a1.72,1.72,0,0,1,1.71-1,1.4,1.4,0,0,1,1.58,1.51v2.82h-.66v-.58h0a1.49,1.49,0,0,1-2.73-.64Zm2.76-.33v-.6a3.34,3.34,0,0,1-1.13.24c-.51.07-1,.23-1,.73s.38.69.9.69A1.1,1.1,0,0,0,137.23,196.94Z"/>
      <path class="cls-7" d="M139.75,198.49h-.66v-4.28h.63v.67h.06a1.26,1.26,0,0,1,1.24-.72c.87,0,1.45.52,1.45,1.61v2.72h-.66v-2.67a.94.94,0,0,0-1-1.07,1.06,1.06,0,0,0-1.09,1.17Z"/>
      <path class="cls-7" d="M146.11,195.34a.9.9,0,0,0-.93-.61c-.52,0-.91.26-.91.63s.23.5.74.62l.63.16c.76.19,1.13.56,1.13,1.16s-.67,1.27-1.66,1.27a1.46,1.46,0,0,1-1.63-1.11l.62-.15a.91.91,0,0,0,1,.69c.62,0,1-.3,1-.67s-.21-.5-.64-.6l-.71-.17c-.78-.18-1.14-.58-1.14-1.17s.67-1.23,1.57-1.23a1.44,1.44,0,0,1,1.52,1Z"/>
      <path class="cls-7" d="M147.63,193.06a.47.47,0,1,1,.47.44A.46.46,0,0,1,147.63,193.06Zm.13,1.15h.66v4.28h-.66Z"/>
      <path class="cls-7" d="M151.48,194.77h-.91v2.49c0,.56.27.65.56.65a.81.81,0,0,0,.29,0l.13.59a1.15,1.15,0,0,1-.48.08,1.09,1.09,0,0,1-1.16-1.1v-2.67h-.65v-.56h.65v-1h.66v1h.91Z"/>
    </g>
    <g>
      <path class="cls-7" d="M120.1,123.42a1.56,1.56,0,0,0-1.61-1.22c-1,0-1.84.81-1.84,2.28s.81,2.28,1.84,2.28a1.56,1.56,0,0,0,1.61-1.21h.69a2.23,2.23,0,0,1-2.3,1.86c-1.45,0-2.51-1.12-2.51-2.93s1.06-2.92,2.51-2.92a2.23,2.23,0,0,1,2.3,1.86Z"/>
      <path class="cls-7" d="M122.46,127.33h-.65v-5.69h.65Z"/>
      <path class="cls-7" d="M123.46,125.22a2,2,0,1,1,1.94,2.2A2,2,0,0,1,123.46,125.22Zm3.22,0c0-.86-.4-1.63-1.28-1.63s-1.28.77-1.28,1.63.4,1.61,1.28,1.61S126.68,126.07,126.68,125.22Z"/>
      <path class="cls-7" d="M131,123.06h.65v4.27H131v-.72H131a1.34,1.34,0,0,1-1.27.78c-.8,0-1.37-.53-1.37-1.62v-2.71H129v2.67a.93.93,0,0,0,.94,1,1.1,1.1,0,0,0,1.1-1.16Z"/>
      <path class="cls-7" d="M132.68,125.21c0-1.35.75-2.2,1.83-2.2a1.29,1.29,0,0,1,1.23.73h.06v-2.1h.65v5.69h-.63v-.65h-.08a1.31,1.31,0,0,1-1.24.74C133.43,127.42,132.68,126.56,132.68,125.21Zm3.13,0c0-1-.42-1.61-1.22-1.61s-1.25.71-1.25,1.61.42,1.63,1.25,1.63S135.81,126.16,135.81,125.2Z"/>
      <path class="cls-7" d="M139.64,123.62h-.95v3.71H138v-3.71h-.69v-.56H138v-.59a1.11,1.11,0,0,1,1.2-1.1,1.63,1.63,0,0,1,.63.11l-.19.57a1.08,1.08,0,0,0-.37-.07c-.43,0-.61.22-.61.65v.43h.95Z"/>
      <path class="cls-7" d="M141.22,127.33h-.65v-5.69h.65Z"/>
      <path class="cls-7" d="M142.22,126.12c0-1,.87-1.15,1.66-1.26s1.1-.07,1.1-.39v0a.79.79,0,0,0-.9-.87,1.16,1.16,0,0,0-1.11.65l-.62-.22a1.72,1.72,0,0,1,1.71-1,1.4,1.4,0,0,1,1.58,1.51v2.81H145v-.58h0a1.49,1.49,0,0,1-2.73-.63Zm2.76-.33v-.6a3.34,3.34,0,0,1-1.13.24c-.51.07-1,.22-1,.72s.38.69.9.69A1.09,1.09,0,0,0,145,125.79Z"/>
      <path class="cls-7" d="M146.84,123.06h.63v.65h.05a1.15,1.15,0,0,1,1.11-.72l.34,0v.66a2.11,2.11,0,0,0-.4,0,1,1,0,0,0-1.07,1v2.7h-.66Z"/>
      <path class="cls-7" d="M149.42,125.23a2,2,0,0,1,1.92-2.22c.89,0,1.84.54,1.84,2.13v.28h-3.1a1.29,1.29,0,0,0,1.33,1.41,1.05,1.05,0,0,0,1.07-.67l.63.18a1.65,1.65,0,0,1-1.7,1.08A2,2,0,0,1,149.42,125.23Zm3.09-.38a1.16,1.16,0,0,0-1.17-1.26,1.27,1.27,0,0,0-1.26,1.26Z"/>
      <path class="cls-7" d="M121.36,136.73l2.09-5.7h.71l2.09,5.7h-.72l-.57-1.62h-2.31l-.57,1.62Zm3.38-2.23-.91-2.57h0l-.91,2.57Z"/>
      <path class="cls-7" d="M126.85,134.61a2,2,0,0,1,1.92-2.21,1.6,1.6,0,0,1,1.7,1.33h-.66a1,1,0,0,0-1-.74c-.77,0-1.28.63-1.28,1.6s.5,1.64,1.28,1.64a1,1,0,0,0,1-.75h.66a1.6,1.6,0,0,1-1.68,1.34A2,2,0,0,1,126.85,134.61Z"/>
      <path class="cls-7" d="M131.22,134.61a2,2,0,0,1,1.93-2.21,1.59,1.59,0,0,1,1.69,1.33h-.66a1,1,0,0,0-1-.74c-.77,0-1.28.63-1.28,1.6s.5,1.64,1.28,1.64a1,1,0,0,0,1-.75h.66a1.6,1.6,0,0,1-1.68,1.34A2,2,0,0,1,131.22,134.61Z"/>
      <path class="cls-7" d="M135.59,134.62a2,2,0,0,1,1.93-2.22c.89,0,1.83.54,1.83,2.14v.27h-3.1a1.3,1.3,0,0,0,1.33,1.42,1.05,1.05,0,0,0,1.07-.67l.63.18a1.66,1.66,0,0,1-1.7,1.08A2,2,0,0,1,135.59,134.62Zm3.09-.37a1.15,1.15,0,0,0-1.16-1.26,1.27,1.27,0,0,0-1.27,1.26Z"/>
      <path class="cls-7" d="M142.79,133.58a.9.9,0,0,0-.93-.61c-.52,0-.91.26-.91.63s.23.5.74.62l.63.16c.76.19,1.13.56,1.13,1.16s-.67,1.28-1.66,1.28a1.47,1.47,0,0,1-1.63-1.12l.62-.15a.91.91,0,0,0,1,.69c.62,0,1-.3,1-.67s-.21-.5-.64-.6l-.71-.17c-.78-.18-1.14-.58-1.14-1.17s.67-1.23,1.57-1.23a1.45,1.45,0,0,1,1.52,1Z"/>
      <path class="cls-7" d="M146.88,133.58A.89.89,0,0,0,146,133c-.53,0-.92.26-.92.63s.23.5.74.62l.63.16c.76.19,1.14.56,1.14,1.16s-.68,1.28-1.67,1.28a1.48,1.48,0,0,1-1.63-1.12l.63-.15a.89.89,0,0,0,1,.69c.61,0,1-.3,1-.67s-.21-.5-.64-.6l-.71-.17c-.78-.18-1.13-.58-1.13-1.17s.66-1.23,1.57-1.23a1.45,1.45,0,0,1,1.51,1Z"/>
    </g>
    <g>
      <path class="cls-7" d="M292.46,127.33v-5.69h1.84a2.51,2.51,0,0,1,2.63,2.83,2.55,2.55,0,0,1-2.71,2.86Zm1.72-.61c1.41,0,2.09-.86,2.09-2.25s-.68-2.22-2-2.22h-1.1v4.47Z"/>
      <path class="cls-7" d="M298.09,127.33v-5.69h1.83a2.51,2.51,0,0,1,2.64,2.83,2.55,2.55,0,0,1-2.71,2.86Zm1.71-.61c1.42,0,2.09-.86,2.09-2.25s-.67-2.22-2-2.22h-1.1v4.47Z"/>
      <path class="cls-7" d="M303.43,125.22a2,2,0,1,1,1.93,2.2A2,2,0,0,1,303.43,125.22Zm3.21,0c0-.86-.4-1.63-1.28-1.63s-1.28.77-1.28,1.63.4,1.61,1.28,1.61S306.64,126.07,306.64,125.22Z"/>
      <path class="cls-7" d="M310.22,122.17c-.75,0-1.25.4-1.25,1s.67.83,1.1.94l.57.16c.59.15,1.61.5,1.61,1.57,0,.92-.75,1.64-2.06,1.64s-2-.63-2.05-1.57h.71c.06.65.66,1,1.34,1s1.39-.41,1.39-1-.53-.77-1.14-.94l-.7-.2c-.89-.26-1.44-.71-1.44-1.48a2,2,0,0,1,3.87-.09h-.67C311.43,122.5,310.91,122.17,310.22,122.17Z"/>
      <path class="cls-7" d="M283.87,131h1.92a1.81,1.81,0,1,1,0,3.62h-1.24v2.08h-.69Zm1.91,3a1.11,1.11,0,0,0,1.27-1.2c0-.68-.35-1.19-1.28-1.19h-1.21V134Z"/>
      <path class="cls-7" d="M288.75,132.46h.63v.64h.05a1.16,1.16,0,0,1,1.11-.71h.34v.67a1.86,1.86,0,0,0-.4,0,1,1,0,0,0-1.07,1v2.71h-.66Z"/>
      <path class="cls-7" d="M291.33,134.61a2,2,0,1,1,1.93,2.21A2,2,0,0,1,291.33,134.61Zm3.21,0c0-.85-.4-1.62-1.28-1.62s-1.28.77-1.28,1.62.41,1.62,1.28,1.62S294.54,135.47,294.54,134.61Z"/>
      <path class="cls-7" d="M298.06,133h-.92v2.49c0,.56.28.65.57.65a.81.81,0,0,0,.29,0l.13.59a1.15,1.15,0,0,1-.48.08,1.09,1.09,0,0,1-1.16-1.1V133h-.65v-.55h.65v-1h.65v1h.92Z"/>
      <path class="cls-7" d="M298.8,134.62a2,2,0,0,1,1.93-2.22c.89,0,1.83.54,1.83,2.14v.27h-3.1a1.3,1.3,0,0,0,1.33,1.42,1.05,1.05,0,0,0,1.07-.67l.63.18a1.66,1.66,0,0,1-1.7,1.08A2,2,0,0,1,298.8,134.62Zm3.09-.37a1.15,1.15,0,0,0-1.16-1.26,1.27,1.27,0,0,0-1.27,1.26Z"/>
      <path class="cls-7" d="M303.36,134.61a2,2,0,0,1,1.92-2.21,1.6,1.6,0,0,1,1.7,1.33h-.66a1,1,0,0,0-1-.74c-.77,0-1.28.63-1.28,1.6s.5,1.64,1.28,1.64a1,1,0,0,0,1-.75H307a1.6,1.6,0,0,1-1.68,1.34A2,2,0,0,1,303.36,134.61Z"/>
      <path class="cls-7" d="M309.79,133h-.91v2.49c0,.56.27.65.56.65a.81.81,0,0,0,.29,0l.14.59a1.24,1.24,0,0,1-.49.08,1.09,1.09,0,0,1-1.16-1.1V133h-.64v-.55h.64v-1h.66v1h.91Z"/>
      <path class="cls-7" d="M310.64,131.3a.47.47,0,0,1,.47-.45.45.45,0,1,1,0,.89A.46.46,0,0,1,310.64,131.3Zm.14,1.16h.65v4.27h-.65Z"/>
      <path class="cls-7" d="M312.43,134.61a2,2,0,1,1,1.94,2.21A2,2,0,0,1,312.43,134.61Zm3.22,0c0-.85-.4-1.62-1.28-1.62s-1.28.77-1.28,1.62.4,1.62,1.28,1.62S315.65,135.47,315.65,134.61Z"/>
      <path class="cls-7" d="M318,136.73h-.65v-4.27h.63v.66H318a1.28,1.28,0,0,1,1.25-.72c.87,0,1.45.52,1.45,1.61v2.72H320v-2.67a1,1,0,0,0-1-1.07,1.06,1.06,0,0,0-1.09,1.17Z"/>
    </g>
    <g>
      <path class="cls-7" d="M304.75,179.26h1.92c1.34,0,1.94.74,1.94,1.75a1.55,1.55,0,0,1-1.07,1.6l1.29,2.35H308l-1.2-2.23h-1.39V185h-.69Zm1.91,2.85c.91,0,1.27-.42,1.27-1.1s-.36-1.13-1.28-1.13h-1.21v2.23Z"/>
      <path class="cls-7" d="M309.46,183.75c0-1,.87-1.16,1.66-1.26s1.1-.07,1.1-.39v0a.79.79,0,0,0-.9-.87,1.13,1.13,0,0,0-1.11.65l-.63-.23a1.76,1.76,0,0,1,1.72-1,1.41,1.41,0,0,1,1.58,1.52V185h-.66v-.58h0a1.36,1.36,0,0,1-1.27.68A1.32,1.32,0,0,1,309.46,183.75Zm2.76-.34v-.6c-.11.14-.86.21-1.13.25-.52.06-1,.22-1,.72s.38.69.9.69A1.09,1.09,0,0,0,312.22,183.41Z"/>
      <path class="cls-7" d="M315.93,181.24H315v2.5c0,.55.28.64.57.64a1.5,1.5,0,0,0,.29,0l.13.59a1.42,1.42,0,0,1-.49.08,1.09,1.09,0,0,1-1.15-1.11v-2.67h-.65v-.55h.65v-1H315v1h.91Z"/>
      <path class="cls-7" d="M316.68,182.86a2,2,0,0,1,1.92-2.23c.89,0,1.84.55,1.84,2.14v.28h-3.1a1.29,1.29,0,0,0,1.33,1.41,1.05,1.05,0,0,0,1.07-.67l.63.18a1.66,1.66,0,0,1-1.7,1.08A2,2,0,0,1,316.68,182.86Zm3.09-.38a1.16,1.16,0,0,0-1.17-1.26,1.27,1.27,0,0,0-1.26,1.26Z"/>
      <path class="cls-7" d="M298.65,188.66h.69v5.08H302v.61h-3.33Z"/>
      <path class="cls-7" d="M302.83,188.93a.47.47,0,1,1,.47.44A.46.46,0,0,1,302.83,188.93Zm.13,1.15h.66v4.27H303Z"/>
      <path class="cls-7" d="M304.82,190.08h.63v.67h.06a1.14,1.14,0,0,1,1.14-.72,1.16,1.16,0,0,1,1.15.72h0a1.35,1.35,0,0,1,1.28-.72c.77,0,1.3.46,1.3,1.47v2.85h-.65V191.5a.8.8,0,0,0-.87-.88.88.88,0,0,0-.94.95v2.78h-.67v-2.92a.79.79,0,0,0-.85-.81,1,1,0,0,0-1,1.06v2.67h-.65Z"/>
      <path class="cls-7" d="M311.49,188.93a.46.46,0,0,1,.47-.45.45.45,0,1,1,0,.89A.46.46,0,0,1,311.49,188.93Zm.13,1.15h.66v4.27h-.66Z"/>
      <path class="cls-7" d="M315.34,190.64h-.91v2.49c0,.56.27.65.56.65a1.14,1.14,0,0,0,.29,0l.14.59a1.47,1.47,0,0,1-.49.08,1.1,1.1,0,0,1-1.16-1.1v-2.67h-.64v-.56h.64v-1h.66v1h.91Z"/>
      <path class="cls-7" d="M316.19,188.93a.47.47,0,0,1,.47-.45.45.45,0,1,1,0,.89A.46.46,0,0,1,316.19,188.93Zm.14,1.15H317v4.27h-.65Z"/>
      <path class="cls-7" d="M318.84,194.35h-.65v-4.27h.63v.67h.05a1.28,1.28,0,0,1,1.25-.72c.87,0,1.45.52,1.45,1.61v2.71h-.66v-2.67a.94.94,0,0,0-1-1.06,1.05,1.05,0,0,0-1.09,1.16Z"/>
      <path class="cls-7" d="M322.74,195.19l.53-.37a1.31,1.31,0,0,0,1.22.65c.69,0,1.19-.33,1.19-1v-.87h-.05a1.31,1.31,0,0,1-1.25.73,1.84,1.84,0,0,1-1.81-2.09c0-1.32.74-2.17,1.82-2.17a1.34,1.34,0,0,1,1.25.73h.06v-.68h.64v4.4c0,1.1-.83,1.56-1.85,1.56A1.89,1.89,0,0,1,322.74,195.19Zm2.95-3c0-.92-.42-1.56-1.22-1.56s-1.25.7-1.25,1.56.43,1.52,1.25,1.52S325.69,193.13,325.69,192.18Z"/>
    </g>
    <g>
      <path class="cls-7" d="M171.88,77c-1,0-1.82.8-1.82,2.28s.81,2.28,1.87,2.28a1.59,1.59,0,0,0,1.66-1.67h-1.51v-.61h2.17v.61a2.2,2.2,0,0,1-2.32,2.32c-1.51,0-2.54-1.13-2.54-2.93s1-2.92,2.49-2.92a2.28,2.28,0,0,1,2.34,1.85h-.71A1.63,1.63,0,0,0,171.88,77Z"/>
      <path class="cls-7" d="M175.14,80.89c0-1,.87-1.16,1.66-1.26s1.1-.07,1.1-.39v0a.79.79,0,0,0-.9-.87,1.13,1.13,0,0,0-1.11.65l-.63-.23a1.76,1.76,0,0,1,1.72-1,1.41,1.41,0,0,1,1.58,1.52V82.1h-.66v-.58h0a1.36,1.36,0,0,1-1.27.68A1.32,1.32,0,0,1,175.14,80.89Zm2.76-.34V80c-.11.14-.86.21-1.13.25-.52.06-1,.22-1,.72s.38.69.9.69A1.09,1.09,0,0,0,177.9,80.55Z"/>
      <path class="cls-7" d="M181.61,78.38h-.91v2.5c0,.55.28.64.57.64a1.5,1.5,0,0,0,.29,0l.13.59a1.42,1.42,0,0,1-.49.08,1.09,1.09,0,0,1-1.15-1.11V78.38h-.65v-.55h.65v-1h.65v1h.91Z"/>
      <path class="cls-7" d="M182.36,80a2,2,0,0,1,1.92-2.23c.89,0,1.84.55,1.84,2.14v.28H183a1.29,1.29,0,0,0,1.33,1.41,1.05,1.05,0,0,0,1.07-.67l.63.18a1.66,1.66,0,0,1-1.7,1.08A2,2,0,0,1,182.36,80Zm3.09-.38a1.16,1.16,0,0,0-1.17-1.26A1.27,1.27,0,0,0,183,79.62Z"/>
      <path class="cls-7" d="M186.79,77.83h.68l.93,3.27h0l.91-3.27h.71l.9,3.26h0l.92-3.26h.69l-1.3,4.27h-.64l-.94-3.28h-.06l-.94,3.28h-.64Z"/>
      <path class="cls-7" d="M193.28,80.89c0-1,.86-1.16,1.66-1.26s1.1-.07,1.1-.39v0a.79.79,0,0,0-.9-.87A1.16,1.16,0,0,0,194,79l-.62-.23a1.75,1.75,0,0,1,1.71-1,1.41,1.41,0,0,1,1.58,1.52V82.1H196v-.58h0a1.48,1.48,0,0,1-2.72-.63Zm2.76-.34V80c-.11.14-.86.21-1.14.25-.51.06-1,.22-1,.72s.37.69.9.69A1.09,1.09,0,0,0,196,80.55Z"/>
      <path class="cls-7" d="M197.68,83.61l.17-.58c.48.13.78.07,1-.57l.12-.34-1.58-4.29h.72l1.18,3.4h0l1.18-3.4h.72l-1.82,4.88a1.29,1.29,0,0,1-1.26,1A1.19,1.19,0,0,1,197.68,83.61Z"/>
    </g>
    <g>
      <path class="cls-7" d="M218.91,77.93h.7l1.19,4.64h.06l1.21-4.64h.78l1.21,4.64h.06l1.19-4.64h.7l-1.56,5.69h-.71l-1.26-4.54h0l-1.26,4.54h-.71Z"/>
      <path class="cls-7" d="M226.17,81.52a2,2,0,0,1,1.93-2.22c.89,0,1.83.54,1.83,2.13v.28h-3.1a1.29,1.29,0,0,0,1.33,1.41,1,1,0,0,0,1.07-.67l.64.18a1.66,1.66,0,0,1-1.71,1.08A2,2,0,0,1,226.17,81.52Zm3.1-.38a1.16,1.16,0,0,0-1.17-1.26,1.29,1.29,0,0,0-1.27,1.26Z"/>
      <path class="cls-7" d="M231,77.93h.66V80h0A1.31,1.31,0,0,1,233,79.3c1.08,0,1.82.85,1.82,2.2s-.74,2.21-1.81,2.21a1.34,1.34,0,0,1-1.25-.74h-.07v.65H231Zm1.87,5.19c.82,0,1.25-.72,1.25-1.63s-.42-1.61-1.25-1.61-1.22.65-1.22,1.61S232.1,83.12,232.89,83.12Z"/>
      <path class="cls-7" d="M237.59,83.62l2.09-5.69h.72l2.09,5.69h-.73L241.19,82h-2.3l-.57,1.61ZM241,81.4l-.91-2.57h0l-.91,2.57Z"/>
      <path class="cls-7" d="M243.29,79.35h.63V80H244a1.29,1.29,0,0,1,1.23-.73c1.08,0,1.83.85,1.83,2.2s-.75,2.21-1.82,2.21A1.31,1.31,0,0,1,244,83h-.06v2.25h-.65Zm1.87,3.77c.82,0,1.24-.72,1.24-1.63s-.41-1.61-1.24-1.61-1.23.65-1.23,1.61S244.37,83.12,245.16,83.12Z"/>
      <path class="cls-7" d="M248.06,79.35h.63V80h.08A1.29,1.29,0,0,1,250,79.3c1.08,0,1.83.85,1.83,2.2s-.75,2.21-1.81,2.21a1.32,1.32,0,0,1-1.25-.74h-.06v2.25h-.65Zm1.87,3.77c.82,0,1.24-.72,1.24-1.63s-.41-1.61-1.24-1.61-1.23.65-1.23,1.61S249.14,83.12,249.93,83.12Z"/>
      <path class="cls-7" d="M253.48,83.62h-.65V77.93h.65Z"/>
      <path class="cls-7" d="M254.55,78.19a.46.46,0,0,1,.47-.44.45.45,0,1,1,0,.89A.46.46,0,0,1,254.55,78.19Zm.14,1.16h.65v4.27h-.65Z"/>
      <path class="cls-7" d="M256.34,81.51a2,2,0,0,1,1.93-2.21A1.59,1.59,0,0,1,260,80.63h-.66a1,1,0,0,0-1-.75c-.77,0-1.28.64-1.28,1.61s.5,1.63,1.28,1.63a1,1,0,0,0,1-.74H260a1.59,1.59,0,0,1-1.68,1.33A2,2,0,0,1,256.34,81.51Z"/>
      <path class="cls-7" d="M260.71,82.41c0-1,.87-1.15,1.66-1.26s1.1-.07,1.1-.39v0a.79.79,0,0,0-.9-.87,1.15,1.15,0,0,0-1.11.65l-.63-.22a1.74,1.74,0,0,1,1.72-1,1.4,1.4,0,0,1,1.58,1.51v2.81h-.66V83h0a1.36,1.36,0,0,1-1.27.68A1.32,1.32,0,0,1,260.71,82.41Zm2.76-.33v-.6a3.39,3.39,0,0,1-1.13.24c-.52.07-1,.22-1,.72s.38.69.9.69A1.09,1.09,0,0,0,263.47,82.08Z"/>
      <path class="cls-7" d="M267.18,79.91h-.91V82.4c0,.55.28.64.57.64a1.5,1.5,0,0,0,.29,0l.13.59a1.42,1.42,0,0,1-.49.08,1.09,1.09,0,0,1-1.15-1.1V79.91H265v-.56h.65v-1h.65v1h.91Z"/>
      <path class="cls-7" d="M268,78.19a.47.47,0,1,1,.47.45A.46.46,0,0,1,268,78.19Zm.13,1.16h.66v4.27h-.66Z"/>
      <path class="cls-7" d="M269.83,81.51a2,2,0,1,1,1.94,2.2A2,2,0,0,1,269.83,81.51Zm3.22,0c0-.86-.41-1.63-1.28-1.63s-1.28.77-1.28,1.63.4,1.61,1.28,1.61S273.05,82.36,273.05,81.51Z"/>
      <path class="cls-7" d="M275.36,83.62h-.66V79.35h.64V80h.05a1.25,1.25,0,0,1,1.25-.72c.86,0,1.44.52,1.44,1.61v2.71h-.65V81a1,1,0,0,0-1-1.07,1.06,1.06,0,0,0-1.09,1.17Z"/>
      <path class="cls-7" d="M235.26,87.32h3.42v.61H236v1.93h2.47v.61H236V93h-.69Z"/>
      <path class="cls-7" d="M239.63,87.59a.47.47,0,0,1,.47-.45.45.45,0,1,1,0,.89A.46.46,0,0,1,239.63,87.59Zm.14,1.16h.65V93h-.65Z"/>
      <path class="cls-7" d="M241.62,88.75h.64v.64h0a1.17,1.17,0,0,1,1.12-.71h.34v.67a2,2,0,0,0-.4,0,1,1,0,0,0-1.08,1V93h-.66Z"/>
      <path class="cls-7" d="M244.2,90.91a2,2,0,0,1,1.93-2.22c.89,0,1.83.54,1.83,2.14v.27h-3.1a1.3,1.3,0,0,0,1.34,1.42,1,1,0,0,0,1.06-.67l.64.18a1.67,1.67,0,0,1-1.7,1.08A2,2,0,0,1,244.2,90.91Zm3.1-.37a1.16,1.16,0,0,0-1.17-1.26,1.28,1.28,0,0,0-1.27,1.26Z"/>
      <path class="cls-7" d="M248.63,88.75h.69l.92,3.27h0l.91-3.27h.7l.9,3.25h0l.92-3.25h.69L253.16,93h-.65l-.93-3.29h-.07L250.58,93h-.65Z"/>
      <path class="cls-7" d="M255.12,91.8c0-1,.87-1.15,1.66-1.25s1.1-.08,1.1-.39v0a.79.79,0,0,0-.9-.87,1.15,1.15,0,0,0-1.11.64l-.62-.22a1.72,1.72,0,0,1,1.71-1,1.41,1.41,0,0,1,1.58,1.51V93h-.66v-.58h0a1.49,1.49,0,0,1-2.73-.64Zm2.76-.33v-.6a3.34,3.34,0,0,1-1.13.24c-.51.07-1,.23-1,.73s.38.69.9.69A1.1,1.1,0,0,0,257.88,91.47Z"/>
      <path class="cls-7" d="M260.4,93h-.66v-5.7h.66Z"/>
      <path class="cls-7" d="M262.25,93h-.65v-5.7h.65Z"/>
    </g>
    <g>
      <path class="cls-7" d="M206,268.09c-.76,0-1.26.4-1.26.94s.68.84,1.1,1l.58.15c.59.16,1.6.51,1.6,1.57s-.74,1.65-2.06,1.65-2-.63-2-1.57h.71c.05.65.65,1,1.33,1s1.39-.41,1.39-1-.53-.78-1.13-.94l-.7-.2c-.89-.26-1.45-.72-1.45-1.48A2,2,0,0,1,208,269h-.66C207.22,268.42,206.7,268.09,206,268.09Z"/>
      <path class="cls-7" d="M211,268.09c-.76,0-1.26.4-1.26.94s.68.84,1.1,1l.58.15c.59.16,1.6.51,1.6,1.57s-.74,1.65-2.05,1.65-2-.63-2.05-1.57h.71c.06.65.66,1,1.34,1s1.39-.41,1.39-1-.54-.78-1.14-.94l-.7-.2c-.89-.26-1.45-.72-1.45-1.48A2,2,0,0,1,213,269h-.67C212.21,268.42,211.69,268.09,211,268.09Z"/>
      <path class="cls-7" d="M214.16,267.55h.69v5.09h2.64v.61h-3.33Z"/>
      <path class="cls-7" d="M218.65,274.11h-.6l1.83-6.82h.6Z"/>
      <path class="cls-7" d="M221,267.55h4.27v.62h-1.79v5.08h-.69v-5.08H221Z"/>
      <path class="cls-7" d="M226.38,267.55h.69v5.09h2.64v.61h-3.33Z"/>
      <path class="cls-7" d="M232.62,268.09c-.76,0-1.26.4-1.26.94s.68.84,1.1,1l.58.15c.59.16,1.6.51,1.6,1.57s-.74,1.65-2.06,1.65-2-.63-2-1.57h.71c.05.65.65,1,1.33,1s1.39-.41,1.39-1-.53-.78-1.13-.94l-.7-.2c-.89-.26-1.45-.72-1.45-1.48a2,2,0,0,1,3.87-.09h-.66C233.83,268.42,233.31,268.09,232.62,268.09Z"/>
      <path class="cls-7" d="M235.86,274.11h-.6l1.84-6.82h.6Z"/>
      <path class="cls-7" d="M204.17,282.64V277H206a2.52,2.52,0,0,1,2.63,2.84,2.55,2.55,0,0,1-2.71,2.85Zm1.71-.61c1.42,0,2.09-.85,2.09-2.24s-.67-2.23-2-2.23h-1.1V282Z"/>
      <path class="cls-7" d="M214.31,282.64h-.66l-3.11-4.47h0v4.47h-.69V277h.67l3.11,4.48h.06V277h.67Z"/>
      <path class="cls-7" d="M217.53,277.48c-.76,0-1.26.4-1.26.95s.68.83,1.1.94l.58.16c.59.16,1.6.5,1.6,1.57,0,.92-.74,1.64-2.06,1.64s-2-.63-2-1.56h.71c.05.64.65.94,1.33.94s1.39-.41,1.39-1-.53-.78-1.13-.95l-.7-.2c-.89-.25-1.45-.71-1.45-1.48a1.74,1.74,0,0,1,2-1.59,1.72,1.72,0,0,1,1.92,1.5h-.66C218.74,277.81,218.22,277.48,217.53,277.48Z"/>
      <path class="cls-7" d="M222.52,277.48c-.76,0-1.26.4-1.26.95s.68.83,1.1.94l.58.16c.59.16,1.6.5,1.6,1.57,0,.92-.74,1.64-2,1.64s-2-.63-2.05-1.56h.71c.06.64.66.94,1.34.94s1.39-.41,1.39-1-.54-.78-1.14-.95l-.7-.2c-.89-.25-1.44-.71-1.44-1.48a2,2,0,0,1,3.87-.09h-.67C223.73,277.81,223.21,277.48,222.52,277.48Z"/>
      <path class="cls-7" d="M225.68,277h3.43v.61h-2.74v1.92h2.57v.62h-2.57V282h2.79v.61h-3.48Z"/>
      <path class="cls-7" d="M234.25,278.73a1.55,1.55,0,0,0-1.6-1.21c-1,0-1.85.8-1.85,2.28s.82,2.28,1.85,2.28a1.55,1.55,0,0,0,1.6-1.22h.69a2.21,2.21,0,0,1-2.29,1.86c-1.46,0-2.51-1.12-2.51-2.92s1.05-2.93,2.51-2.93a2.21,2.21,0,0,1,2.29,1.86Z"/>
    </g>
    <g>
      <path class="cls-7" d="M274.2,235.15h2c1.19,0,1.74.68,1.74,1.52a1.14,1.14,0,0,1-.92,1.19v0a1.32,1.32,0,0,1,1.14,1.42c0,.86-.55,1.52-1.9,1.52H274.2Zm2,2.51a1,1,0,0,0,1.12-1c0-.51-.34-.91-1.09-.91h-1.31v1.9Zm.09,2.58c.9,0,1.25-.4,1.25-.91a1.12,1.12,0,0,0-1.21-1.07h-1.41v2Z"/>
      <path class="cls-7" d="M279,238.73a2,2,0,1,1,1.93,2.21A2,2,0,0,1,279,238.73Zm3.21,0c0-.85-.4-1.62-1.28-1.62s-1.27.77-1.27,1.62.4,1.62,1.27,1.62S282.21,239.59,282.21,238.73Z"/>
      <path class="cls-7" d="M285.73,237.13h-.91v2.49c0,.56.27.65.56.65a1.31,1.31,0,0,0,.29,0l.13.59a1.41,1.41,0,0,1-.48.07,1.09,1.09,0,0,1-1.16-1.1v-2.67h-.65v-.55h.65v-1h.66v1h.91Z"/>
      <path class="cls-7" d="M257.08,244.55l1.93,4.72h.07l1.93-4.72h.83v5.69h-.65v-4.33h-.05l-1.78,4.33h-.63L257,245.91h-.05v4.33h-.65v-5.69Z"/>
      <path class="cls-7" d="M262.92,249c0-1,.87-1.15,1.66-1.26s1.1-.07,1.1-.39v0a.79.79,0,0,0-.9-.87,1.16,1.16,0,0,0-1.11.65l-.62-.22a1.74,1.74,0,0,1,1.71-1,1.41,1.41,0,0,1,1.58,1.52v2.81h-.66v-.58h0a1.49,1.49,0,0,1-2.73-.63Zm2.76-.33v-.6a3.34,3.34,0,0,1-1.13.24c-.51.07-1,.22-1,.72s.38.69.9.69A1.09,1.09,0,0,0,265.68,248.7Z"/>
      <path class="cls-7" d="M268.2,250.24h-.66V246h.63v.67h.06a1.26,1.26,0,0,1,1.25-.73c.86,0,1.44.53,1.44,1.62v2.71h-.66v-2.67a.94.94,0,0,0-1-1.07,1.06,1.06,0,0,0-1.09,1.17Z"/>
      <path class="cls-7" d="M271.92,249c0-1,.87-1.15,1.66-1.26s1.1-.07,1.1-.39v0a.79.79,0,0,0-.9-.87,1.15,1.15,0,0,0-1.11.65l-.63-.22a1.75,1.75,0,0,1,1.72-1,1.41,1.41,0,0,1,1.58,1.52v2.81h-.66v-.58h0a1.36,1.36,0,0,1-1.27.68A1.32,1.32,0,0,1,271.92,249Zm2.76-.33v-.6a3.4,3.4,0,0,1-1.14.24c-.51.07-1,.22-1,.72s.38.69.9.69A1.09,1.09,0,0,0,274.68,248.7Z"/>
      <path class="cls-7" d="M276.51,251.08l.53-.37a1.31,1.31,0,0,0,1.22.64c.69,0,1.19-.32,1.19-1v-.87h-.06a1.28,1.28,0,0,1-1.24.73,1.84,1.84,0,0,1-1.81-2.1c0-1.31.74-2.17,1.82-2.17a1.35,1.35,0,0,1,1.25.74h.06V246h.64v4.39c0,1.11-.83,1.57-1.85,1.57A1.91,1.91,0,0,1,276.51,251.08Zm2.95-3c0-.92-.42-1.57-1.22-1.57s-1.25.71-1.25,1.57.42,1.52,1.25,1.52S279.46,249,279.46,248.07Z"/>
      <path class="cls-7" d="M281.11,248.14a2,2,0,0,1,1.92-2.23c.89,0,1.84.55,1.84,2.14v.28h-3.1a1.29,1.29,0,0,0,1.33,1.41,1,1,0,0,0,1.06-.67l.64.18a1.66,1.66,0,0,1-1.7,1.08A2,2,0,0,1,281.11,248.14Zm3.09-.38A1.16,1.16,0,0,0,283,246.5a1.27,1.27,0,0,0-1.26,1.26Z"/>
      <path class="cls-7" d="M285.87,246h.63v.67h.06a1.13,1.13,0,0,1,1.14-.73,1.18,1.18,0,0,1,1.15.73h0a1.36,1.36,0,0,1,1.28-.73c.76,0,1.3.47,1.3,1.47v2.86h-.65v-2.86a.8.8,0,0,0-.87-.88.9.9,0,0,0-.95,1v2.78h-.67v-2.92a.79.79,0,0,0-.84-.82,1,1,0,0,0-1,1.07v2.67h-.65Z"/>
      <path class="cls-7" d="M292.47,248.14a2,2,0,0,1,1.93-2.23c.89,0,1.83.55,1.83,2.14v.28h-3.1a1.29,1.29,0,0,0,1.33,1.41,1,1,0,0,0,1.07-.67l.63.18a1.65,1.65,0,0,1-1.7,1.08A2,2,0,0,1,292.47,248.14Zm3.09-.38a1.16,1.16,0,0,0-1.16-1.26,1.28,1.28,0,0,0-1.27,1.26Z"/>
      <path class="cls-7" d="M297.89,250.24h-.66V246h.63v.67h.06a1.26,1.26,0,0,1,1.25-.73c.86,0,1.44.53,1.44,1.62v2.71H300v-2.67a1,1,0,0,0-1-1.07,1.06,1.06,0,0,0-1.09,1.17Z"/>
      <path class="cls-7" d="M303.67,246.53h-.91V249c0,.55.28.64.56.64a1.31,1.31,0,0,0,.29,0l.14.59a1.47,1.47,0,0,1-.49.08,1.1,1.1,0,0,1-1.16-1.1v-2.67h-.64V246h.64v-1h.66v1h.91Z"/>
    </g>
    <g>
      <polygon class="cls-3" points="177.27 51.16 176.37 52.06 176.37 58.85 178.41 58.85 178.41 53.19 194.95 53.19 194.95 69.83 178.41 69.83 178.41 66.41 176.37 66.41 176.37 70.96 177.27 71.86 196.08 71.86 196.98 70.96 196.98 62.06 203.87 62.06 202.66 60.02 196.98 60.02 196.98 52.06 196.08 51.16 177.27 51.16"/>
      <polygon class="cls-3" points="168.63 60.27 169.77 62.19 188.38 62.19 187.25 60.27 168.63 60.27"/>
      <polygon class="cls-3" points="188.91 63.07 170.29 63.07 171.43 64.99 190.05 64.99 188.91 63.07"/>
    </g>
    <g>
      <path class="cls-3" d="M144.07,92.76a12.25,12.25,0,0,0-11.66,8.45l-.08.26h2.25l0-.12a10.12,10.12,0,1,1,.9,9.13l-.16-.26-.11-.2h-2.39l.13.28a12.61,12.61,0,0,0,.74,1.33,12.26,12.26,0,1,0,10.33-18.87"/>
      <polygon class="cls-3" points="144.64 103.34 140.34 99.04 138.91 100.47 141.42 102.97 122.79 102.97 123.99 105 143.95 105 144.64 103.34"/>
      <polygon class="cls-3" points="143.18 111.02 144.61 112.45 148.91 108.16 148.22 106.5 124.89 106.5 126.09 108.52 145.68 108.52 143.18 111.02"/>
    </g>
    <path class="cls-3" d="M141.34,157a3.82,3.82,0,0,0-7.43-1.24l-12.3,0a3.83,3.83,0,1,0-4.66,4l2.17,12.84a3.82,3.82,0,1,0,5.75,3.76l7.77-2.26a3.82,3.82,0,1,0,4.57-5.61l1.17-7.77a3.83,3.83,0,0,0,3-3.72m-7.78,12-5.09-2.88a3.72,3.72,0,0,0,.15-1.06,3.61,3.61,0,0,0-.21-1.23l6.51-4.07a3.8,3.8,0,0,0,1.48.86l-1.15,7.65a3.78,3.78,0,0,0-1.69.73m.31-10.89-6.55,4.09a3.8,3.8,0,0,0-4-.64l-2.38-3.31a3.61,3.61,0,0,0,.35-.6l12.53,0a3.2,3.2,0,0,0,.1.42M122.94,165a1.86,1.86,0,1,1,1.86,1.86,1.86,1.86,0,0,1-1.86-1.86m14.58-9.95a1.86,1.86,0,1,1-1.86,1.86,1.86,1.86,0,0,1,1.86-1.86m-21.58.9a1.86,1.86,0,1,1,1.86,1.86,1.86,1.86,0,0,1-1.86-1.86m3,3.65.43-.17,2.37,3.29A3.85,3.85,0,0,0,121,165a3.8,3.8,0,0,0,1.68,3.16L121.38,172l-.3,0H121Zm2.15,18.05a1.86,1.86,0,1,1,1.86-1.86,1.86,1.86,0,0,1-1.86,1.86m3.52-3.35a3.79,3.79,0,0,0-1.37-1.67l1.27-3.82.3,0a3.82,3.82,0,0,0,2.66-1.09l4.89,2.77a3.79,3.79,0,0,0-.3,1.47s0,.1,0,.16Zm11.28-.46a1.86,1.86,0,1,1,1.86-1.86,1.87,1.87,0,0,1-1.86,1.86"/>
    <g>
      <circle class="cls-4" cx="218.98" cy="158.5" r="57.41"/>
      <path class="cls-3" d="M219,216.36a57.69,57.69,0,1,1,22.53-4.55A57.47,57.47,0,0,1,219,216.36Zm0-114.82A56.81,56.81,0,1,0,241.16,106,56.67,56.67,0,0,0,219,101.54Z"/>
    </g>
    <g>
      <path class="cls-3" d="M166.59,235.72h-.89l-.36-.18c-.39-.2-9.73-5-9.73-14.72v-7l.86-1,.68-.09a13.85,13.85,0,0,0,7.66-3.8l.59-.66h1.49l.59.67a14,14,0,0,0,7.66,3.79l.69.09.85,1v7c0,9.74-9.34,14.52-9.73,14.72Zm-9-21.09v6.19c0,8.15,7.58,12.38,8.55,12.89,1-.51,8.54-4.74,8.54-12.89v-6.19a15.84,15.84,0,0,1-8.54-4.25,15.93,15.93,0,0,1-8.55,4.25"/>
      <rect class="cls-3" x="165.15" y="215.39" width="1.99" height="4.4"/>
      <rect class="cls-3" x="166.97" y="217.84" width="4.4" height="1.99" transform="translate(-105.2 183.72) rotate(-45)"/>
      <rect class="cls-3" x="168.22" y="220.87" width="4.4" height="1.99"/>
      <rect class="cls-3" x="168.17" y="222.69" width="1.99" height="4.4" transform="translate(-109.47 185.46) rotate(-45)"/>
      <rect class="cls-3" x="165.15" y="223.94" width="1.99" height="4.4"/>
      <rect class="cls-3" x="160.93" y="223.89" width="4.4" height="1.99" transform="translate(-111.24 181.22) rotate(-45)"/>
      <rect class="cls-3" x="159.68" y="220.87" width="4.4" height="1.99"/>
      <rect class="cls-3" x="162.13" y="216.64" width="1.99" height="4.4" transform="translate(-106.96 179.42) rotate(-45)"/>
    </g>
    <rect class="cls-8" x="35.88" y="62.58" width="125.04" height="0.9"/>
    <rect class="cls-8" x="269.44" y="62.58" width="177.23" height="0.9"/>
    <rect class="cls-8" x="323.8" y="107.38" width="122.87" height="0.9"/>
    <rect class="cls-8" y="107.38" width="118.52" height="0.9"/>
    <rect class="cls-8" y="171.31" width="105.47" height="0.9"/>
    <rect class="cls-8" x="323.15" y="171.31" width="120.69" height="0.9"/>
    <rect class="cls-8" x="21.09" y="223.72" width="129.22" height="0.9"/>
    <rect class="cls-8" x="305.97" y="223.72" width="136.13" height="0.9"/>
    <rect class="cls-8" x="242.91" y="262.65" width="199.2" height="0.9"/>
    <g>
      <path class="cls-8" d="M41.81,52c-1.21,0-2,.93-2,2.58s.8,2.59,2,2.59a1.6,1.6,0,0,0,1.8-1.6H41.93V54.3h3.3v1a3.19,3.19,0,0,1-3.42,3.35c-2.22,0-3.73-1.56-3.73-4.06s1.61-4.07,3.7-4.07a3.21,3.21,0,0,1,3.38,2.67h-1.7A1.59,1.59,0,0,0,41.81,52Z"/>
      <path class="cls-8" d="M46.18,56.87c0-1.32,1-1.72,2.23-1.82s1.43-.15,1.43-.54v0c0-.49-.32-.77-.88-.77a1,1,0,0,0-1.05.68l-1.52-.12A2.36,2.36,0,0,1,49,52.52c1.32,0,2.52.6,2.52,2v4H49.93v-.82h0a1.81,1.81,0,0,1-1.73.93A1.74,1.74,0,0,1,46.18,56.87Zm3.68-.46v-.63a4.05,4.05,0,0,1-1.15.27c-.58.08-1,.3-1,.77s.36.69.87.69A1.15,1.15,0,0,0,49.86,56.41Z"/>
      <path class="cls-8" d="M55.92,53.83H54.81v2.88c0,.45.22.58.55.58a1.8,1.8,0,0,0,.41-.06L56,58.45a3.15,3.15,0,0,1-.89.16c-1.19,0-2-.53-2-1.69V53.83h-.81V52.6h.81V51.18h1.65V52.6h1.11Z"/>
      <path class="cls-8" d="M56.69,55.59a2.81,2.81,0,0,1,2.88-3.07,2.69,2.69,0,0,1,2.78,3V56h-4a1.29,1.29,0,0,0,1.34,1.43,1.12,1.12,0,0,0,1.14-.69l1.52.1a2.47,2.47,0,0,1-2.69,1.81A2.78,2.78,0,0,1,56.69,55.59ZM60.81,55a1.17,1.17,0,0,0-1.22-1.21A1.24,1.24,0,0,0,58.32,55Z"/>
      <path class="cls-8" d="M62.94,52.6H64.6l.92,4h.06l1-4h1.64l1,4h0l.9-4h1.66l-1.61,5.93H68.4l-1-3.73h-.07l-1,3.73H64.55Z"/>
      <path class="cls-8" d="M72.35,56.87c0-1.32,1.05-1.72,2.23-1.82S76,54.9,76,54.51v0c0-.49-.32-.77-.88-.77a1,1,0,0,0-1,.68l-1.52-.12a2.35,2.35,0,0,1,2.58-1.76c1.32,0,2.52.6,2.52,2v4H76.1v-.82h0a1.82,1.82,0,0,1-1.73.93A1.74,1.74,0,0,1,72.35,56.87ZM76,56.41v-.63a3.9,3.9,0,0,1-1.14.27c-.58.08-1,.3-1,.77s.36.69.87.69A1.14,1.14,0,0,0,76,56.41Z"/>
      <path class="cls-8" d="M78.7,60.57l.37-1.23c.58.18,1,.15,1.21-.39l.1-.25-2.13-6.1H80L81.21,57h.06l1.24-4.35h1.74l-2.31,6.56a2.13,2.13,0,0,1-2.21,1.57A2.83,2.83,0,0,1,78.7,60.57Z"/>
    </g>
    <g>
      <path class="cls-8" d="M5.4,92H3.73V84.11H5.4Z"/>
      <path class="cls-8" d="M8.4,92H6.75V86.09H8.32v1h.07A1.78,1.78,0,0,1,10.17,86a2,2,0,0,1,2.05,2.23V92H10.57V88.53a1,1,0,0,0-1.05-1.15A1.09,1.09,0,0,0,8.4,88.59Z"/>
      <path class="cls-8" d="M16.67,87.32H15.55V90.2c0,.45.23.57.56.57a2.08,2.08,0,0,0,.41,0l.25,1.22a3,3,0,0,1-.89.16c-1.19.05-2-.53-2-1.69V87.32H13.1V86.09h.81V84.67h1.64v1.42h1.12Z"/>
      <path class="cls-8" d="M17.44,89.08A2.81,2.81,0,0,1,20.31,86a2.69,2.69,0,0,1,2.79,3v.45h-4a1.29,1.29,0,0,0,1.34,1.43,1.12,1.12,0,0,0,1.14-.69l1.52.1a2.46,2.46,0,0,1-2.68,1.81A2.77,2.77,0,0,1,17.44,89.08Zm4.11-.63a1.17,1.17,0,0,0-1.21-1.21,1.26,1.26,0,0,0-1.28,1.21Z"/>
      <path class="cls-8" d="M24.17,86.09h1.6v1h.06A1.45,1.45,0,0,1,27.25,86a2.85,2.85,0,0,1,.52.06v1.46a2.75,2.75,0,0,0-.69-.09,1.19,1.19,0,0,0-1.26,1.23V92H24.17Z"/>
      <path class="cls-8" d="M30.26,92H28.62V86.09h1.56v1h.07A1.8,1.8,0,0,1,32,86a2,2,0,0,1,2,2.23V92H32.44V88.53a1,1,0,0,0-1-1.15,1.09,1.09,0,0,0-1.13,1.21Z"/>
      <path class="cls-8" d="M35.1,90.36c0-1.32,1-1.72,2.23-1.83s1.43-.15,1.43-.53v0c0-.49-.32-.77-.88-.77a1,1,0,0,0-1.05.68l-1.52-.12A2.36,2.36,0,0,1,37.89,86c1.32,0,2.52.59,2.52,2v4H38.85V91.2H38.8a1.81,1.81,0,0,1-1.73.93A1.74,1.74,0,0,1,35.1,90.36Zm3.68-.46v-.63a4.08,4.08,0,0,1-1.15.26c-.58.09-1,.31-1,.78s.36.68.87.68A1.14,1.14,0,0,0,38.78,89.9Z"/>
      <path class="cls-8" d="M43.33,92H41.69V84.11h1.64Z"/>
      <path class="cls-8" d="M46.77,92l2.73-7.91h2.15L54.38,92H52.59L52,90.21H49.15L48.56,92Zm4.81-3.11-1-3h-.07l-1,3Z"/>
      <path class="cls-8" d="M55.3,86.09h1.62v1H57A1.76,1.76,0,0,1,58.68,86c1.3,0,2.4,1,2.4,3s-1,3-2.4,3a1.76,1.76,0,0,1-1.69-1h-.05v3.17H55.3Zm2.85,4.72c.81,0,1.25-.72,1.25-1.76s-.43-1.73-1.25-1.73-1.24.67-1.24,1.73S57.36,90.81,58.15,90.81Z"/>
      <path class="cls-8" d="M62.17,86.09H63.8v1h.07A1.74,1.74,0,0,1,65.56,86c1.3,0,2.4,1,2.4,3s-1.06,3-2.41,3a1.76,1.76,0,0,1-1.68-1h0v3.17H62.17ZM65,90.81c.81,0,1.25-.72,1.25-1.76s-.43-1.73-1.25-1.73-1.25.67-1.25,1.73S64.24,90.81,65,90.81Z"/>
      <path class="cls-8" d="M3.3,105.07,6,97.16H8.19l2.72,7.91H9.12l-.59-1.81H5.68l-.59,1.81ZM8.11,102l-1-3H7.08l-1,3Z"/>
      <path class="cls-8" d="M11.32,102.12a2.8,2.8,0,0,1,2.91-3.06,2.4,2.4,0,0,1,2.65,2.27H15.33a1.06,1.06,0,0,0-1.08-1c-.76,0-1.26.64-1.26,1.76s.5,1.78,1.26,1.78a1.06,1.06,0,0,0,1.08-1h1.55a2.4,2.4,0,0,1-2.65,2.29A2.8,2.8,0,0,1,11.32,102.12Z"/>
      <path class="cls-8" d="M17.7,102.12a2.8,2.8,0,0,1,2.91-3.06,2.41,2.41,0,0,1,2.66,2.27H21.72a1.06,1.06,0,0,0-1.08-1c-.76,0-1.27.64-1.27,1.76s.5,1.78,1.27,1.78a1.07,1.07,0,0,0,1.08-1h1.55a2.41,2.41,0,0,1-2.65,2.29A2.8,2.8,0,0,1,17.7,102.12Z"/>
      <path class="cls-8" d="M24.09,102.13A2.81,2.81,0,0,1,27,99.06a2.69,2.69,0,0,1,2.79,3v.45h-4A1.29,1.29,0,0,0,27.06,104a1.12,1.12,0,0,0,1.14-.68l1.52.1A2.47,2.47,0,0,1,27,105.18,2.77,2.77,0,0,1,24.09,102.13Zm4.11-.63A1.15,1.15,0,0,0,27,100.29a1.26,1.26,0,0,0-1.28,1.21Z"/>
      <path class="cls-8" d="M34.25,100.92a.93.93,0,0,0-1-.7c-.51,0-.91.24-.91.59s.21.48.76.6l1.07.21c1.15.24,1.71.75,1.72,1.61,0,1.17-1.11,2-2.65,2s-2.53-.7-2.69-1.83l1.62-.09a1,1,0,0,0,1.08.74c.57,0,1-.26,1-.61s-.24-.48-.76-.59l-1-.2c-1.16-.23-1.72-.81-1.72-1.7,0-1.14,1-1.84,2.51-1.84s2.38.67,2.53,1.77Z"/>
      <path class="cls-8" d="M40.36,100.92a.93.93,0,0,0-1-.7c-.51,0-.91.24-.91.59s.2.48.76.6l1.07.21c1.15.24,1.71.75,1.71,1.61,0,1.17-1.1,2-2.64,2s-2.53-.7-2.69-1.83l1.62-.09a1,1,0,0,0,1.08.74c.57,0,1-.26,1-.61s-.24-.48-.76-.59l-1-.2c-1.15-.23-1.71-.81-1.71-1.7,0-1.14,1-1.84,2.51-1.84s2.38.67,2.53,1.77Z"/>
    </g>
    <g>
      <path class="cls-8" d="M5.76,147H7.43v6.53h3.39v1.37H5.76Z"/>
      <path class="cls-8" d="M11.62,153.21c0-1.33,1.06-1.72,2.23-1.83s1.44-.15,1.44-.53v0c0-.49-.32-.77-.88-.77a1,1,0,0,0-1.06.68l-1.52-.12a2.36,2.36,0,0,1,2.58-1.76c1.32,0,2.52.59,2.52,2v4H15.37V154h0a1.81,1.81,0,0,1-1.73.94A1.74,1.74,0,0,1,11.62,153.21Zm3.68-.47v-.62a4.09,4.09,0,0,1-1.14.26c-.58.08-1,.31-1,.77s.37.69.87.69A1.14,1.14,0,0,0,15.3,152.74Z"/>
      <path class="cls-8" d="M18,156.91l.37-1.23c.58.18,1,.14,1.21-.39l.1-.26-2.13-6.1h1.73l1.23,4.36h.06l1.24-4.36h1.74l-2.3,6.57A2.15,2.15,0,0,1,19,157.08,2.88,2.88,0,0,1,18,156.91Z"/>
      <path class="cls-8" d="M23.93,151.93a2.81,2.81,0,0,1,2.87-3.07,2.69,2.69,0,0,1,2.79,3v.45h-4a1.29,1.29,0,0,0,1.35,1.43,1.11,1.11,0,0,0,1.14-.69l1.52.11A2.47,2.47,0,0,1,26.87,155,2.77,2.77,0,0,1,23.93,151.93ZM28,151.3a1.16,1.16,0,0,0-1.21-1.22,1.26,1.26,0,0,0-1.28,1.22Z"/>
      <path class="cls-8" d="M30.67,148.93h1.59v1h.06a1.44,1.44,0,0,1,1.43-1.12,2.1,2.1,0,0,1,.51.06v1.46a2.69,2.69,0,0,0-.69-.09,1.19,1.19,0,0,0-1.26,1.23v3.35H30.67Z"/>
      <path class="cls-8" d="M37.54,152.63h1.68c0,.58.58,1,1.32,1s1.31-.43,1.3-1.06-.55-1.08-1.45-1.08h-.74v-1.23h.74c.76,0,1.29-.42,1.29-1a1,1,0,0,0-1.13-1,1.13,1.13,0,0,0-1.25,1H37.7c0-1.37,1.24-2.32,2.86-2.32s2.73,1,2.73,2.23a1.68,1.68,0,0,1-1.49,1.67v.06a1.8,1.8,0,0,1,1.78,1.83c0,1.36-1.27,2.33-3,2.33S37.57,154,37.54,152.63Z"/>
      <path class="cls-8" d="M4.64,166.26c0-1.33,1.05-1.72,2.23-1.83,1-.1,1.43-.15,1.43-.53v0c0-.48-.32-.77-.88-.77a1,1,0,0,0-1,.69l-1.52-.13a2.35,2.35,0,0,1,2.58-1.76c1.32,0,2.52.6,2.52,2v4H8.39v-.82H8.34a1.82,1.82,0,0,1-1.73.93A1.74,1.74,0,0,1,4.64,166.26Zm3.67-.47v-.63a3.9,3.9,0,0,1-1.14.27c-.58.08-1,.31-1,.77s.36.69.87.69A1.14,1.14,0,0,0,8.31,165.79Z"/>
      <path class="cls-8" d="M14.38,163.22H13.26v2.87c0,.46.23.58.56.58a1.89,1.89,0,0,0,.41-.06l.26,1.23a3.24,3.24,0,0,1-.89.15c-1.2,0-2-.52-2-1.68v-3.09h-.81V162h.81v-1.42h1.64V162h1.12Z"/>
      <path class="cls-8" d="M18.6,163.22H17.49v2.87c0,.46.23.58.55.58a1.8,1.8,0,0,0,.41-.06l.26,1.23a3.16,3.16,0,0,1-.89.15c-1.19,0-2-.52-2-1.68v-3.09H15V162h.81v-1.42h1.65V162H18.6Z"/>
      <path class="cls-8" d="M19.39,166.26c0-1.33,1.06-1.72,2.23-1.83s1.44-.15,1.44-.53v0c0-.48-.32-.77-.88-.77a1,1,0,0,0-1.06.69l-1.52-.13a2.37,2.37,0,0,1,2.59-1.76c1.32,0,2.51.6,2.51,2v4H23.14v-.82h0a1.83,1.83,0,0,1-1.74.93A1.74,1.74,0,0,1,19.39,166.26Zm3.68-.47v-.63a4,4,0,0,1-1.14.27c-.58.08-1,.31-1,.77s.36.69.86.69A1.14,1.14,0,0,0,23.07,165.79Z"/>
      <path class="cls-8" d="M25.74,165a2.81,2.81,0,0,1,2.91-3.07,2.41,2.41,0,0,1,2.66,2.27H29.76a1.06,1.06,0,0,0-1.08-1c-.76,0-1.27.64-1.27,1.76s.5,1.78,1.27,1.78a1.07,1.07,0,0,0,1.08-1h1.55A2.41,2.41,0,0,1,28.66,168,2.81,2.81,0,0,1,25.74,165Z"/>
      <path class="cls-8" d="M32.37,160H34v4.23h.09L36,162h1.89l-2.2,2.57L38,167.91H36.07l-1.61-2.39L34,166v1.88H32.37Z"/>
      <path class="cls-8" d="M42.12,163.77a.92.92,0,0,0-1-.7c-.51,0-.91.23-.91.59s.2.47.75.59l1.08.22c1.15.23,1.71.75,1.71,1.6,0,1.17-1.1,2-2.64,2s-2.54-.7-2.69-1.84l1.62-.08a1,1,0,0,0,1.08.73c.57,0,.95-.25,1-.6s-.24-.49-.76-.59l-1-.21c-1.16-.23-1.72-.8-1.71-1.69,0-1.14,1-1.85,2.51-1.85s2.38.68,2.53,1.77Z"/>
    </g>
    <g>
      <path class="cls-8" d="M25.35,199.58H27v6.53h3.39v1.38H25.35Z"/>
      <path class="cls-8" d="M31.21,205.83c0-1.32,1-1.71,2.23-1.82s1.43-.15,1.43-.54v0c0-.49-.32-.77-.88-.77a1,1,0,0,0-1.05.69l-1.52-.13A2.36,2.36,0,0,1,34,201.48c1.32,0,2.52.6,2.52,2v4H35v-.82h-.05a1.81,1.81,0,0,1-1.73.93A1.74,1.74,0,0,1,31.21,205.83Zm3.68-.46v-.63a4.05,4.05,0,0,1-1.15.27c-.58.08-1,.31-1,.77s.36.69.87.69A1.15,1.15,0,0,0,34.89,205.37Z"/>
      <path class="cls-8" d="M37.56,209.54l.37-1.24c.58.19,1,.15,1.21-.39l.1-.25-2.13-6.1h1.73l1.23,4.35h.06l1.24-4.35h1.74l-2.3,6.56a2.15,2.15,0,0,1-2.21,1.57A3.15,3.15,0,0,1,37.56,209.54Z"/>
      <path class="cls-8" d="M43.52,204.55a2.81,2.81,0,0,1,2.87-3.07,2.69,2.69,0,0,1,2.79,3V205h-4a1.29,1.29,0,0,0,1.35,1.43,1.11,1.11,0,0,0,1.13-.69l1.53.1a2.48,2.48,0,0,1-2.69,1.82A2.78,2.78,0,0,1,43.52,204.55Zm4.11-.62a1.17,1.17,0,0,0-1.21-1.22,1.26,1.26,0,0,0-1.28,1.22Z"/>
      <path class="cls-8" d="M50.25,201.56h1.6v1h.06a1.45,1.45,0,0,1,1.42-1.12,2.75,2.75,0,0,1,.52.06V203a2.69,2.69,0,0,0-.69-.09,1.2,1.2,0,0,0-1.26,1.23v3.36H50.25Z"/>
      <path class="cls-8" d="M57.08,204.78l3.31-5.2h2.09v5.18h1v1.34h-1v1.39h-1.6V206.1h-3.8Zm3.83-3.37h-.06l-2.08,3.29v.06h2.14Z"/>
      <path class="cls-8" d="M24.43,218.88c0-1.32,1.05-1.72,2.22-1.82s1.44-.16,1.44-.54v0c0-.49-.32-.77-.88-.77a1,1,0,0,0-1.05.68l-1.52-.12a2.35,2.35,0,0,1,2.58-1.76c1.32,0,2.52.59,2.52,2v4H28.18v-.82h-.05a1.82,1.82,0,0,1-1.73.93A1.73,1.73,0,0,1,24.43,218.88Zm3.67-.46v-.63a4.25,4.25,0,0,1-1.14.27c-.58.08-1,.3-1,.77s.36.68.87.68A1.13,1.13,0,0,0,28.1,218.42Z"/>
      <path class="cls-8" d="M34.17,215.84H33.05v2.88c0,.45.23.57.56.57a2,2,0,0,0,.41,0l.26,1.22a3.16,3.16,0,0,1-.9.16c-1.19,0-2-.53-2-1.69v-3.09H30.6v-1.23h.81v-1.42h1.64v1.42h1.12Z"/>
      <path class="cls-8" d="M38.39,215.84H37.28v2.88c0,.45.22.57.55.57a1.89,1.89,0,0,0,.41,0l.26,1.22a3.15,3.15,0,0,1-.89.16c-1.19,0-2-.53-2-1.69v-3.09h-.81v-1.23h.81v-1.42h1.65v1.42h1.11Z"/>
      <path class="cls-8" d="M39.18,218.88c0-1.32,1.06-1.72,2.23-1.82s1.44-.16,1.44-.54v0c0-.49-.32-.77-.88-.77a1,1,0,0,0-1.06.68l-1.52-.12A2.37,2.37,0,0,1,42,214.53c1.32,0,2.51.59,2.51,2v4H42.93v-.82h0a1.83,1.83,0,0,1-1.74.93A1.74,1.74,0,0,1,39.18,218.88Zm3.68-.46v-.63a4.34,4.34,0,0,1-1.14.27c-.58.08-1,.3-1,.77s.36.68.86.68A1.13,1.13,0,0,0,42.86,218.42Z"/>
      <path class="cls-8" d="M45.53,217.6a2.81,2.81,0,0,1,2.91-3.07,2.41,2.41,0,0,1,2.66,2.27H49.55a1.06,1.06,0,0,0-1.08-1c-.76,0-1.27.64-1.27,1.76s.5,1.78,1.27,1.78a1.06,1.06,0,0,0,1.08-1H51.1a2.4,2.4,0,0,1-2.65,2.29A2.8,2.8,0,0,1,45.53,217.6Z"/>
      <path class="cls-8" d="M52.16,212.63H53.8v4.23h.09l1.9-2.25h1.89l-2.2,2.56,2.31,3.37H55.86l-1.61-2.39-.45.5v1.89H52.16Z"/>
      <path class="cls-8" d="M61.91,216.39a.92.92,0,0,0-1-.69c-.51,0-.91.23-.91.58s.2.48.75.6l1.08.21c1.15.24,1.71.75,1.71,1.61,0,1.17-1.1,2-2.64,2s-2.54-.7-2.69-1.83l1.62-.09a1,1,0,0,0,1.07.74c.58,0,1-.25,1-.6s-.24-.49-.76-.59l-1-.21c-1.16-.23-1.72-.81-1.71-1.69,0-1.15,1-1.85,2.51-1.85s2.38.68,2.53,1.77Z"/>
    </g>
    <g>
      <path class="cls-8" d="M386.83,238.29,389,243.6h.09l2.18-5.31h2.06v7.91h-1.62v-5.15h-.07l-2,5.11H388.5L386.45,241h-.06v5.17h-1.62v-7.91Z"/>
      <path class="cls-8" d="M394.41,244.54c0-1.32,1-1.72,2.22-1.82s1.44-.15,1.44-.54v0c0-.49-.32-.77-.88-.77a1,1,0,0,0-1.06.69l-1.52-.13a2.37,2.37,0,0,1,2.59-1.76c1.32,0,2.51.6,2.51,2v4h-1.56v-.82h0a1.83,1.83,0,0,1-1.74.93A1.73,1.73,0,0,1,394.41,244.54Zm3.67-.46v-.63a4,4,0,0,1-1.14.27c-.58.08-1,.3-1,.77s.36.69.87.69A1.14,1.14,0,0,0,398.08,244.08Z"/>
      <path class="cls-8" d="M402.64,246.2H401v-5.93h1.57v1h.07a1.79,1.79,0,0,1,1.78-1.12,2,2,0,0,1,2,2.23v3.78h-1.65v-3.48a1,1,0,0,0-1.05-1.16,1.09,1.09,0,0,0-1.12,1.21Z"/>
      <path class="cls-8" d="M410.21,238.67a.89.89,0,1,1,.89.83A.86.86,0,0,1,410.21,238.67Zm.06,1.6h1.65v5.93h-1.65Z"/>
      <path class="cls-8" d="M414.88,246.2h-1.65v-5.93h1.57v1h.07a1.79,1.79,0,0,1,1.78-1.12,2,2,0,0,1,2.05,2.23v3.78h-1.65v-3.48a1,1,0,0,0-1.05-1.16,1.09,1.09,0,0,0-1.12,1.21Z"/>
      <path class="cls-8" d="M425.67,241.5h-1.12v2.88c0,.45.23.58.56.58a1.89,1.89,0,0,0,.41-.06l.26,1.23a3.68,3.68,0,0,1-.89.15c-1.2.05-2-.53-2-1.69V241.5h-.81v-1.23h.81v-1.42h1.64v1.42h1.12Z"/>
      <path class="cls-8" d="M428.51,246.2h-1.65v-7.91h1.6v3h.07a1.76,1.76,0,0,1,1.77-1.12,2,2,0,0,1,2.05,2.23v3.78h-1.64v-3.48a1,1,0,0,0-1.06-1.16,1.1,1.1,0,0,0-1.14,1.21Z"/>
      <path class="cls-8" d="M433.41,243.26a2.81,2.81,0,0,1,2.88-3.07,2.69,2.69,0,0,1,2.78,3v.45h-4a1.29,1.29,0,0,0,1.34,1.43,1.12,1.12,0,0,0,1.14-.69l1.52.1a2.47,2.47,0,0,1-2.69,1.81A2.78,2.78,0,0,1,433.41,243.26Zm4.12-.63a1.17,1.17,0,0,0-1.22-1.21,1.24,1.24,0,0,0-1.27,1.21Z"/>
      <path class="cls-8" d="M368.32,251.34l2.17,5.31h.1l2.17-5.31h2.06v7.91H373.2V254.1h-.06l-2.05,5.11H370l-2.05-5.13h-.07v5.17h-1.62v-7.91Z"/>
      <path class="cls-8" d="M376.11,251.72a.89.89,0,1,1,.89.83A.86.86,0,0,1,376.11,251.72Zm.06,1.6h1.64v5.93h-1.64Z"/>
      <path class="cls-8" d="M378.91,256.29c0-2,1.1-3.05,2.4-3.05a1.76,1.76,0,0,1,1.69,1.07h.05v-3h1.64v7.91h-1.63v-.95H383a1.76,1.76,0,0,1-1.69,1C380,259.34,378.91,258.27,378.91,256.29Zm4.17,0c0-1.06-.45-1.73-1.25-1.73s-1.24.7-1.24,1.73S381,258,381.83,258,383.08,257.34,383.08,256.28Z"/>
      <path class="cls-8" d="M385.81,256.29c0-2,1.1-3.05,2.41-3.05a1.74,1.74,0,0,1,1.68,1.07H390v-3h1.64v7.91H390v-.95h-.07a1.74,1.74,0,0,1-1.68,1C386.87,259.34,385.81,258.27,385.81,256.29Zm4.18,0c0-1.06-.45-1.73-1.25-1.73s-1.25.7-1.25,1.73.44,1.75,1.25,1.75S390,257.34,390,256.28Z"/>
      <path class="cls-8" d="M394.59,259.25h-1.65v-7.91h1.65Z"/>
      <path class="cls-8" d="M395.66,256.31a2.81,2.81,0,0,1,2.88-3.07,2.69,2.69,0,0,1,2.78,3v.45h-4a1.28,1.28,0,0,0,1.34,1.42,1.12,1.12,0,0,0,1.14-.68l1.52.1a2.47,2.47,0,0,1-2.69,1.81A2.78,2.78,0,0,1,395.66,256.31Zm4.12-.63a1.17,1.17,0,0,0-1.22-1.21,1.24,1.24,0,0,0-1.27,1.21Z"/>
      <path class="cls-8" d="M404.52,259.25l2.73-7.91h2.16l2.72,7.91h-1.79l-.59-1.81H406.9l-.59,1.81Zm4.81-3.11-1-3h-.06l-1,3Z"/>
      <path class="cls-8" d="M415.83,254.55h-1.11v2.87c0,.46.23.58.55.58a2.85,2.85,0,0,0,.41-.05l.26,1.22a3,3,0,0,1-.89.16c-1.19.05-2-.53-2-1.69v-3.09h-.81v-1.23h.81V251.9h1.65v1.42h1.11Z"/>
      <path class="cls-8" d="M420.06,254.55h-1.12v2.87c0,.46.23.58.56.58a3,3,0,0,0,.41-.05l.26,1.22a3.16,3.16,0,0,1-.9.16c-1.19.05-2-.53-2-1.69v-3.09h-.81v-1.23h.81V251.9h1.64v1.42h1.12Z"/>
      <path class="cls-8" d="M420.85,257.59c0-1.32,1-1.72,2.23-1.83s1.43-.15,1.43-.53v0c0-.49-.32-.77-.88-.77a1,1,0,0,0-1.05.68l-1.52-.12a2.36,2.36,0,0,1,2.58-1.76c1.32,0,2.52.59,2.52,2v4H424.6v-.83h-.05a1.8,1.8,0,0,1-1.73.94A1.74,1.74,0,0,1,420.85,257.59Zm3.68-.46v-.63a4.08,4.08,0,0,1-1.15.26c-.58.08-1,.31-1,.78s.36.68.87.68A1.14,1.14,0,0,0,424.53,257.13Z"/>
      <path class="cls-8" d="M427.2,256.3a2.81,2.81,0,0,1,2.91-3.06,2.41,2.41,0,0,1,2.66,2.27h-1.56a1.05,1.05,0,0,0-1.07-1c-.77,0-1.27.64-1.27,1.76s.5,1.78,1.27,1.78a1,1,0,0,0,1.07-1h1.56a2.4,2.4,0,0,1-2.65,2.29A2.8,2.8,0,0,1,427.2,256.3Z"/>
      <path class="cls-8" d="M433.82,251.34h1.65v4.23h.09l1.9-2.25h1.89l-2.21,2.56,2.32,3.37h-1.93l-1.62-2.39-.44.5v1.89h-1.65Z"/>
    </g>
    <g>
      <path class="cls-8" d="M384.35,213.07h3.16c1.75,0,2.63.84,2.63,2a1.69,1.69,0,0,1-1.43,1.7v.08a1.83,1.83,0,0,1,1.74,1.92c0,1.26-.95,2.18-2.72,2.18h-3.38Zm2.91,3.3c.68,0,1.19-.37,1.19-1s-.42-1-1.16-1H386v2Zm.12,3.24c.94,0,1.34-.39,1.34-1a1.15,1.15,0,0,0-1.3-1.11H386v2.1Z"/>
      <path class="cls-8" d="M391.26,218a2.92,2.92,0,1,1,2.92,3.06A2.8,2.8,0,0,1,391.26,218Zm4.17,0c0-1-.43-1.8-1.24-1.8s-1.26.76-1.26,1.8.43,1.79,1.26,1.79S395.43,219.05,395.43,218Z"/>
      <path class="cls-8" d="M401.33,216.28h-1.12v2.87c0,.46.23.58.56.58a3,3,0,0,0,.41,0l.26,1.22a3.25,3.25,0,0,1-.9.15c-1.19,0-2-.52-2-1.68v-3.09h-.81V215h.81v-1.42h1.64V215h1.12Z"/>
      <path class="cls-8" d="M404.52,221l2.73-7.9h2.16l2.72,7.9h-1.79l-.59-1.8H406.9l-.59,1.8Zm4.81-3.11-1-3h-.06l-1,3Z"/>
      <path class="cls-8" d="M415.83,216.28h-1.11v2.87c0,.46.23.58.55.58a2.85,2.85,0,0,0,.41,0l.26,1.22a3.09,3.09,0,0,1-.89.15c-1.19,0-2-.52-2-1.68v-3.09h-.81V215h.81v-1.42h1.65V215h1.11Z"/>
      <path class="cls-8" d="M420.06,216.28h-1.12v2.87c0,.46.23.58.56.58a3,3,0,0,0,.41,0l.26,1.22a3.25,3.25,0,0,1-.9.15c-1.19,0-2-.52-2-1.68v-3.09h-.81V215h.81v-1.42h1.64V215h1.12Z"/>
      <path class="cls-8" d="M420.85,219.32c0-1.33,1-1.72,2.23-1.83s1.43-.15,1.43-.53v0c0-.48-.32-.76-.88-.76a1,1,0,0,0-1.05.68l-1.52-.12a2.35,2.35,0,0,1,2.58-1.76c1.32,0,2.52.59,2.52,2v4H424.6v-.82h-.05a1.82,1.82,0,0,1-1.73.94A1.74,1.74,0,0,1,420.85,219.32Zm3.68-.47v-.63a3.74,3.74,0,0,1-1.15.27c-.58.08-1,.31-1,.77s.36.69.87.69A1.15,1.15,0,0,0,424.53,218.85Z"/>
      <path class="cls-8" d="M427.2,218a2.8,2.8,0,0,1,2.91-3.06,2.4,2.4,0,0,1,2.66,2.27h-1.56a1,1,0,0,0-1.07-1c-.77,0-1.27.64-1.27,1.76s.5,1.78,1.27,1.78a1.05,1.05,0,0,0,1.07-1h1.56a2.41,2.41,0,0,1-2.65,2.29A2.8,2.8,0,0,1,427.2,218Z"/>
      <path class="cls-8" d="M433.82,213.07h1.65v4.22h.09l1.9-2.25h1.89l-2.21,2.57,2.32,3.36h-1.93l-1.62-2.39-.44.51V221h-1.65Z"/>
    </g>
    <g>
      <path class="cls-8" d="M410.73,145.9h1.68v6.53h3.39v1.38h-5.07Z"/>
      <path class="cls-8" d="M416.63,150.87a2.92,2.92,0,1,1,2.92,3.06A2.81,2.81,0,0,1,416.63,150.87Zm4.17,0c0-1-.42-1.8-1.24-1.8s-1.25.76-1.25,1.8.42,1.79,1.25,1.79S420.8,151.89,420.8,150.86Z"/>
      <path class="cls-8" d="M423.51,154.51l1.52-.21a1.21,1.21,0,0,0,1.23.64c.71,0,1.23-.32,1.23-1.1v-1.08h-.07a1.71,1.71,0,0,1-1.69,1c-1.33,0-2.4-.92-2.4-2.9s1.1-3,2.4-3a1.75,1.75,0,0,1,1.69,1.08h.06v-1h1.64v6c0,1.48-1.21,2.25-2.9,2.25S423.7,155.4,423.51,154.51Zm4-3.68c0-1-.45-1.72-1.25-1.72s-1.24.71-1.24,1.72.44,1.66,1.24,1.66S427.5,151.87,427.5,150.83Z"/>
      <path class="cls-8" d="M430.37,146.28a.89.89,0,1,1,.89.84A.87.87,0,0,1,430.37,146.28Zm.06,1.6h1.64v5.93h-1.64Z"/>
      <path class="cls-8" d="M435,153.81h-1.64v-5.93H435v1.05H435a1.8,1.8,0,0,1,1.79-1.13,2,2,0,0,1,2.05,2.23v3.78h-1.65v-3.48a1,1,0,0,0-1-1.16,1.1,1.1,0,0,0-1.13,1.21Z"/>
      <path class="cls-8" d="M404.52,166.86l2.73-7.91h2.16l2.72,7.91h-1.79l-.59-1.81H406.9l-.59,1.81Zm4.81-3.11-1-3h-.06l-1,3Z"/>
      <path class="cls-8" d="M415.83,162.16h-1.11V165c0,.45.23.57.56.57a1.87,1.87,0,0,0,.4-.05l.26,1.22a3,3,0,0,1-.89.16c-1.19.05-2-.53-2-1.69v-3.09h-.81v-1.23h.81v-1.42h1.65v1.42h1.11Z"/>
      <path class="cls-8" d="M420.06,162.16h-1.12V165c0,.45.23.57.56.57a2,2,0,0,0,.41-.05l.26,1.22a3.15,3.15,0,0,1-.89.16c-1.2.05-2-.53-2-1.69v-3.09h-.81v-1.23h.81v-1.42h1.64v1.42h1.12Z"/>
      <path class="cls-8" d="M420.85,165.2c0-1.32,1-1.72,2.23-1.82s1.43-.16,1.43-.54v0c0-.49-.32-.77-.88-.77a1,1,0,0,0-1.05.68l-1.52-.12a2.36,2.36,0,0,1,2.58-1.76c1.32,0,2.52.59,2.52,2v4H424.6V166h-.05a1.81,1.81,0,0,1-1.73.93A1.74,1.74,0,0,1,420.85,165.2Zm3.68-.46v-.63a4.05,4.05,0,0,1-1.15.27c-.58.08-1,.3-1,.77s.36.68.87.68A1.14,1.14,0,0,0,424.53,164.74Z"/>
      <path class="cls-8" d="M427.2,163.92a2.81,2.81,0,0,1,2.91-3.07,2.41,2.41,0,0,1,2.66,2.27h-1.56a1.05,1.05,0,0,0-1.07-1c-.77,0-1.27.64-1.27,1.76s.5,1.78,1.27,1.78a1,1,0,0,0,1.07-1h1.56a2.4,2.4,0,0,1-2.65,2.29A2.8,2.8,0,0,1,427.2,163.92Z"/>
      <path class="cls-8" d="M433.82,159h1.65v4.23h.09l1.9-2.25h1.89l-2.21,2.56,2.32,3.37h-1.93l-1.62-2.39-.44.5v1.89h-1.65Z"/>
    </g>
    <g>
      <path class="cls-8" d="M377,82.37h1.67V88.9h3.39v1.38H377Z"/>
      <path class="cls-8" d="M382.85,88.62c0-1.32,1-1.72,2.23-1.82s1.43-.16,1.43-.54v0c0-.49-.32-.77-.88-.77a1,1,0,0,0-1.05.68L383.06,86a2.35,2.35,0,0,1,2.58-1.76c1.32,0,2.52.59,2.52,2v4H386.6v-.82h-.05a1.82,1.82,0,0,1-1.73.93A1.74,1.74,0,0,1,382.85,88.62Zm3.67-.46v-.63a3.9,3.9,0,0,1-1.14.27c-.58.08-1,.3-1,.77s.36.68.87.68A1.13,1.13,0,0,0,386.52,88.16Z"/>
      <path class="cls-8" d="M389.2,92.32l.37-1.23c.58.18,1,.15,1.21-.39l.1-.25-2.13-6.1h1.73l1.23,4.35h.06L393,84.35h1.74l-2.31,6.56a2.13,2.13,0,0,1-2.2,1.57A2.88,2.88,0,0,1,389.2,92.32Z"/>
      <path class="cls-8" d="M395.15,87.34A2.81,2.81,0,0,1,398,84.27a2.69,2.69,0,0,1,2.79,3v.45h-4a1.29,1.29,0,0,0,1.34,1.43,1.12,1.12,0,0,0,1.14-.69l1.52.1a2.46,2.46,0,0,1-2.68,1.81A2.78,2.78,0,0,1,395.15,87.34Zm4.12-.63a1.17,1.17,0,0,0-1.21-1.21,1.25,1.25,0,0,0-1.28,1.21Z"/>
      <path class="cls-8" d="M401.89,84.35h1.6v1h.06A1.44,1.44,0,0,1,405,84.26a2.85,2.85,0,0,1,.52.06v1.46a2.75,2.75,0,0,0-.69-.09,1.19,1.19,0,0,0-1.26,1.23v3.36h-1.65Z"/>
      <path class="cls-8" d="M412.43,83.79v-.05h-3.82V82.37h5.55v1.39l-3.28,6.52h-1.73Z"/>
      <path class="cls-8" d="M415.36,90.28V82.37h2.82a4,4,0,0,1,0,7.91Zm2.73-1.43c1.49,0,2.27-.77,2.27-2.53s-.78-2.52-2.27-2.52H417v5Z"/>
      <path class="cls-8" d="M423.26,90.28V82.37h2.83a4,4,0,0,1,0,7.91ZM426,88.85c1.48,0,2.27-.77,2.27-2.53s-.79-2.52-2.27-2.52h-1.06v5Z"/>
      <path class="cls-8" d="M430.9,87.34a2.92,2.92,0,1,1,2.92,3A2.81,2.81,0,0,1,430.9,87.34Zm4.17,0c0-1-.43-1.8-1.24-1.8s-1.26.77-1.26,1.8.43,1.8,1.26,1.8S435.07,88.36,435.07,87.32Z"/>
      <path class="cls-8" d="M440.78,83.66c-.82,0-1.27.37-1.27.88s.57.83,1.25,1l.71.17c1.38.31,2.37,1,2.37,2.33s-1.14,2.37-3.07,2.37-3.14-.88-3.18-2.59h1.62c.05.79.68,1.19,1.54,1.19s1.4-.4,1.41-1-.49-.78-1.35-1l-.86-.22c-1.33-.32-2.16-1-2.15-2.15,0-1.44,1.26-2.4,3-2.4s2.92,1,2.95,2.38h-1.61C442.07,84,441.58,83.66,440.78,83.66Z"/>
      <path class="cls-8" d="M409.31,103.33,412,95.42h2.15l2.73,7.91h-1.8l-.58-1.81h-2.86l-.58,1.81Zm4.81-3.11-1-3h-.06l-1,3Z"/>
      <path class="cls-8" d="M420.62,98.63H419.5v2.87c0,.46.23.58.56.58a3,3,0,0,0,.41,0l.26,1.22a3.15,3.15,0,0,1-.89.16c-1.2,0-2-.53-2-1.69V98.63h-.81V97.4h.81V96h1.64V97.4h1.12Z"/>
      <path class="cls-8" d="M424.84,98.63h-1.11v2.87c0,.46.22.58.55.58a2.85,2.85,0,0,0,.41,0l.26,1.22a3.15,3.15,0,0,1-.89.16c-1.19,0-2-.53-2-1.69V98.63h-.81V97.4h.81V96h1.65V97.4h1.11Z"/>
      <path class="cls-8" d="M425.63,101.67c0-1.33,1.06-1.72,2.23-1.83s1.44-.15,1.44-.53v0c0-.49-.32-.77-.88-.77a1,1,0,0,0-1.06.68l-1.52-.12a2.37,2.37,0,0,1,2.59-1.76c1.32,0,2.51.59,2.51,2v4h-1.56v-.83h0a1.82,1.82,0,0,1-1.74.94A1.74,1.74,0,0,1,425.63,101.67Zm3.68-.46v-.63a4,4,0,0,1-1.14.26c-.58.08-1,.31-1,.78s.36.68.86.68A1.13,1.13,0,0,0,429.31,101.21Z"/>
      <path class="cls-8" d="M432,100.38a2.8,2.8,0,0,1,2.91-3.06,2.41,2.41,0,0,1,2.66,2.27H436a1.06,1.06,0,0,0-1.08-1c-.76,0-1.27.64-1.27,1.76s.5,1.78,1.27,1.78a1.06,1.06,0,0,0,1.08-1h1.55a2.41,2.41,0,0,1-2.65,2.29A2.8,2.8,0,0,1,432,100.38Z"/>
      <path class="cls-8" d="M438.61,95.42h1.64v4.23h.09l1.9-2.25h1.89l-2.2,2.56,2.31,3.37h-1.93l-1.61-2.39-.45.5v1.89h-1.64Z"/>
    </g>
    <g>
      <path class="cls-8" d="M354,47l2.73-7.9h2.16l2.72,7.9h-1.79l-.58-1.8h-2.86l-.58,1.8Zm4.81-3.11-1-3h-.06l-1,3Z"/>
      <path class="cls-8" d="M362.56,41.07h1.62v1h.08A1.75,1.75,0,0,1,366,41c1.3,0,2.4,1,2.4,3.06s-1.06,3.05-2.41,3.05a1.74,1.74,0,0,1-1.68-1.05h-.05v3.18h-1.65Zm2.86,4.72c.81,0,1.25-.72,1.25-1.75s-.44-1.74-1.25-1.74-1.25.68-1.25,1.74S364.63,45.79,365.42,45.79Z"/>
      <path class="cls-8" d="M369.44,41.07h1.62v1h.07A1.77,1.77,0,0,1,372.82,41c1.3,0,2.4,1,2.4,3.06s-1.05,3.05-2.4,3.05a1.76,1.76,0,0,1-1.69-1.05h-.05v3.18h-1.64Zm2.86,4.72c.8,0,1.24-.72,1.24-1.75s-.43-1.74-1.24-1.74-1.25.68-1.25,1.74S371.51,45.79,372.3,45.79Z"/>
      <path class="cls-8" d="M382.29,47h-1.85l-2.07-5.93h1.73l1.24,4.25h.06l1.23-4.25h1.74Z"/>
      <path class="cls-8" d="M389,41.07h1.65V47h-1.58V45.93H389a1.83,1.83,0,0,1-1.8,1.15,2,2,0,0,1-2-2.23V41.07h1.64v3.48a1,1,0,0,0,1,1.14A1.11,1.11,0,0,0,389,44.48Z"/>
      <path class="cls-8" d="M393.61,47H392V39.1h1.64Z"/>
      <path class="cls-8" d="M396.57,47h-1.64V41.07h1.57v1h.06A1.81,1.81,0,0,1,398.35,41a2,2,0,0,1,2,2.24V47h-1.64V43.52a1,1,0,0,0-1.05-1.16,1.1,1.1,0,0,0-1.13,1.21Z"/>
      <path class="cls-8" d="M401.45,44.06A2.81,2.81,0,0,1,404.33,41a2.7,2.7,0,0,1,2.78,3v.45h-4a1.29,1.29,0,0,0,1.35,1.43,1.11,1.11,0,0,0,1.14-.69l1.52.1a2.48,2.48,0,0,1-2.69,1.82A2.78,2.78,0,0,1,401.45,44.06Zm4.12-.62a1.18,1.18,0,0,0-1.22-1.22,1.26,1.26,0,0,0-1.28,1.22Z"/>
      <path class="cls-8" d="M408.19,41.07h1.59v1h.06A1.44,1.44,0,0,1,411.27,41a2.24,2.24,0,0,1,.52.06V42.5a2.87,2.87,0,0,0-.7-.08,1.19,1.19,0,0,0-1.26,1.23V47h-1.64Z"/>
      <path class="cls-8" d="M412.19,45.35c0-1.33,1.05-1.72,2.23-1.83,1-.1,1.43-.15,1.43-.53v0c0-.48-.32-.76-.88-.76a1,1,0,0,0-1.05.68l-1.52-.12A2.35,2.35,0,0,1,415,41c1.32,0,2.52.6,2.52,2v4h-1.56v-.82h-.05a1.82,1.82,0,0,1-1.73.93A1.74,1.74,0,0,1,412.19,45.35Zm3.67-.47v-.63a3.6,3.6,0,0,1-1.14.27c-.58.08-1,.31-1,.77s.36.69.87.69A1.14,1.14,0,0,0,415.86,44.88Z"/>
      <path class="cls-8" d="M418.81,39.1h1.64v3h.05A1.76,1.76,0,0,1,422.19,41c1.3,0,2.4,1,2.4,3.06s-1.06,3.05-2.41,3.05a1.75,1.75,0,0,1-1.68-1.05h-.07v1h-1.62Zm2.85,6.69c.81,0,1.25-.72,1.25-1.75s-.43-1.74-1.25-1.74-1.24.68-1.24,1.74S420.87,45.79,421.66,45.79Z"/>
      <path class="cls-8" d="M425.62,39.47a.89.89,0,1,1,.89.84A.87.87,0,0,1,425.62,39.47Zm.06,1.6h1.65V47h-1.65Z"/>
      <path class="cls-8" d="M430.28,47h-1.64V39.1h1.64Z"/>
      <path class="cls-8" d="M431.54,39.47a.87.87,0,0,1,.88-.83.84.84,0,1,1,0,1.67A.87.87,0,0,1,431.54,39.47Zm.06,1.6h1.64V47H431.6Z"/>
      <path class="cls-8" d="M437.71,42.31h-1.12v2.87c0,.46.23.58.56.58a3,3,0,0,0,.41,0l.26,1.22a3.24,3.24,0,0,1-.89.15c-1.2.05-2-.52-2-1.68V42.31h-.81V41.07H435V39.65h1.64v1.42h1.12Z"/>
      <path class="cls-8" d="M438.76,49.05l.37-1.23c.58.18,1,.14,1.21-.4l.1-.25-2.13-6.1H440l1.23,4.36h.06l1.24-4.36h1.74L442,47.64a2.14,2.14,0,0,1-2.21,1.58A2.87,2.87,0,0,1,438.76,49.05Z"/>
      <path class="cls-8" d="M409.52,60.05l2.73-7.91h2.16l2.72,7.91h-1.79l-.59-1.8H411.9l-.59,1.8Zm4.81-3.11-1-3h-.06l-1,3Z"/>
      <path class="cls-8" d="M420.84,55.36h-1.12v2.87c0,.45.23.58.56.58a2,2,0,0,0,.41-.06l.25,1.23a3.09,3.09,0,0,1-.89.15c-1.19,0-2-.52-2-1.69V55.36h-.82V54.12h.82V52.7h1.64v1.42h1.12Z"/>
      <path class="cls-8" d="M425.06,55.36h-1.12v2.87c0,.45.23.58.56.58a1.89,1.89,0,0,0,.41-.06l.26,1.23a3.24,3.24,0,0,1-.89.15c-1.2,0-2-.52-2-1.69V55.36h-.81V54.12h.81V52.7h1.64v1.42h1.12Z"/>
      <path class="cls-8" d="M425.85,58.39c0-1.32,1.06-1.71,2.23-1.82s1.44-.15,1.44-.53v0c0-.48-.32-.77-.88-.77a1,1,0,0,0-1.06.69l-1.52-.13A2.36,2.36,0,0,1,428.64,54c1.32,0,2.52.6,2.52,2v4H429.6v-.82h-.05a1.8,1.8,0,0,1-1.73.93A1.74,1.74,0,0,1,425.85,58.39Zm3.68-.46V57.3a4.05,4.05,0,0,1-1.15.27c-.57.08-1,.31-1,.77s.37.69.87.69A1.15,1.15,0,0,0,429.53,57.93Z"/>
      <path class="cls-8" d="M432.2,57.11A2.81,2.81,0,0,1,435.11,54a2.41,2.41,0,0,1,2.66,2.27h-1.55a1.06,1.06,0,0,0-1.08-1c-.77,0-1.27.65-1.27,1.77s.5,1.78,1.27,1.78a1.07,1.07,0,0,0,1.08-1h1.55a2.41,2.41,0,0,1-2.65,2.29A2.8,2.8,0,0,1,432.2,57.11Z"/>
      <path class="cls-8" d="M438.83,52.14h1.64v4.23h.09l1.9-2.25h1.89l-2.2,2.57,2.31,3.36h-1.93l-1.62-2.39-.44.51v1.88h-1.64Z"/>
    </g>
    <path class="cls-3" d="M248.2,166.81H193.6c-6.53,0-16-7-16-18.07a18.24,18.24,0,0,1,6.6-14.12,17.07,17.07,0,0,1,13.28-3.89,22.85,22.85,0,0,1,9.06-12.33A27.29,27.29,0,0,1,222,113.58c5.32,0,11.18,2.52,15.67,6.75a24.38,24.38,0,0,1,7.82,16.92A15.32,15.32,0,0,1,257,140.77a15.53,15.53,0,0,1,5,11.91,14.31,14.31,0,0,1-4.17,9.76A13.62,13.62,0,0,1,248.2,166.81Zm-53-34.57a15.64,15.64,0,0,0-9.92,3.67,16.71,16.71,0,0,0-.91,24.82c2.76,2.71,6.32,4.4,9.27,4.4h54.6c6.23,0,12.12-6,12.12-12.45A13.07,13.07,0,0,0,244.77,139a.83.83,0,0,1-.66-.2.85.85,0,0,1-.29-.63,22.68,22.68,0,0,0-7.31-16.63c-4.19-3.94-9.62-6.29-14.52-6.29a25.56,25.56,0,0,0-14.52,4.52,21.05,21.05,0,0,0-8.6,12.11.83.83,0,0,1-1,.61A14.87,14.87,0,0,0,195.16,132.24Z"/>
    <g>
      <path class="cls-3" d="M289.24,214.51H280v-2.69a1.92,1.92,0,0,0,.79-.9,1.9,1.9,0,0,0,.08-1.2,1.88,1.88,0,0,0-.67-1,1.87,1.87,0,0,0-2.26,0,1.88,1.88,0,0,0-.67,1,1.9,1.9,0,0,0,.08,1.2,1.87,1.87,0,0,0,.79.9v2.69h-9.3l-.93.93v14.31l.93.93h20.45l.93-.93V215.44Zm-.93,14.31H269.73V216.37h18.58Z"/>
      <path class="cls-3" d="M274.68,222.37a1.55,1.55,0,1,0-1.54-1.55A1.54,1.54,0,0,0,274.68,222.37Z"/>
      <path class="cls-3" d="M283.36,222.37a1.55,1.55,0,1,0-1.55-1.55A1.54,1.54,0,0,0,283.36,222.37Z"/>
      <path class="cls-3" d="M282,224.36h-5.88v1.86H282Z"/>
    </g>
    <g>
      <path class="cls-3" d="M312.92,174.54l0-4.29h-1.26l0,4.34-1.13-1.09-.87.91,2.66,2.57,2.57-2.67-.91-.87Z"/>
      <path class="cls-3" d="M305.76,152a1.3,1.3,0,1,0-1.3-1.3A1.3,1.3,0,0,0,305.76,152Z"/>
      <path class="cls-3" d="M310.1,152a1.3,1.3,0,1,0-1.3-1.3A1.3,1.3,0,0,0,310.1,152Z"/>
      <path class="cls-3" d="M314.43,152a1.3,1.3,0,1,0-1.3-1.3A1.3,1.3,0,0,0,314.43,152Z"/>
      <path class="cls-3" d="M318.76,152a1.3,1.3,0,1,0-1.3-1.3A1.31,1.31,0,0,0,318.76,152Z"/>
      <path class="cls-3" d="M308,156.16a1.3,1.3,0,1,0-1.3-1.3A1.3,1.3,0,0,0,308,156.16Z"/>
      <path class="cls-3" d="M312.35,156.16a1.3,1.3,0,1,0-1.3-1.3A1.3,1.3,0,0,0,312.35,156.16Z"/>
      <path class="cls-3" d="M316.68,156.16a1.3,1.3,0,1,0-1.3-1.3A1.3,1.3,0,0,0,316.68,156.16Z"/>
      <path class="cls-3" d="M310.05,168.52l.87.87h2.69l.86-.87v-4.77l6.16-5.41-.56-1.5H304.46l-.56,1.5,6.15,5.39Zm-3.32-10h11.06L313,162.71l-.29.64v4.34h-1v-4.34l-.29-.64Z"/>
    </g>
    <g>
      <path class="cls-3" d="M202.64,142.93a4.81,4.81,0,0,0-3.41,8.22,4.71,4.71,0,0,0,2.47,1.32,4.82,4.82,0,1,0,.94-9.54Zm0,7.71a2.9,2.9,0,0,1-1.61-.49,2.93,2.93,0,0,1-1.06-1.3,2.9,2.9,0,0,1-.17-1.67,2.88,2.88,0,0,1,2.27-2.27,3,3,0,0,1,1.68.16,2.92,2.92,0,0,1,1.29,1.07,2.88,2.88,0,0,1-.36,3.65A2.88,2.88,0,0,1,202.64,150.64Z"/>
      <path class="cls-3" d="M211.27,147.75l3.58-3.47-3.12-5.41-4.7,1.35-1.25-5h-6.27l-1.21,5-4.72-1.35-3.12,5.42,3.6,3.48-3.6,3.49,3.12,5.41,4.72-1.35,1.23,5h6.27l1.23-4.95,4.76,1.36,3.12-5.41Zm-.44,6.65-4.21-1.21-1.29.89-1.06,4.27H201L200,154.11l-1.24-.92-4.24,1.21-1.62-2.8,3.16-3V147l-3.16-3.05,1.62-2.8,4.24,1.21,1.25-1,1.05-4.22h3.24l1.06,4.23,1.25,1,4.25-1.23,1.62,2.8L209.29,147l.05,1.56,3.13,3Z"/>
    </g>
    <g>
      <path class="cls-3" d="M241.09,137.75,238,135.39l-.59-.18H223.46l-.57.19-3.19,2.36-.39.77v18.32l.26.66L221.9,160l.71.31h15.25l.66-.26,2.64-2.46.31-.71V138.53ZM239.54,150l-2.15,2.38H223.74l-2.5-2.22v-3.58l1.77,1.56h15.23l1.3-1.44ZM223,142.23h15.21l1.32-1.35v3l-2.15,2.38H223.74l-2.5-2.22v-3.34Zm.77-5.09h13.31l2,1.5-1.64,1.68H223.74l-1.93-1.72Zm13.71,21.21H223l-1.78-1.89v-3.72L223,154.3h15.22l1.3-1.44v3.56Z"/>
      <path class="cls-3" d="M236.26,145.16a1,1,0,0,0,.56-.16,1.11,1.11,0,0,0,.37-.46,1.14,1.14,0,0,0,.06-.58,1,1,0,0,0-.28-.51,1,1,0,0,0-.52-.28,1,1,0,0,0-.58.06,1,1,0,0,0-.45.37,1,1,0,0,0-.09.94.93.93,0,0,0,.21.33,1.19,1.19,0,0,0,.33.22A.87.87,0,0,0,236.26,145.16Z"/>
      <path class="cls-3" d="M236.26,149.19a1,1,0,0,0-.56.17,1,1,0,0,0-.37.45,1,1,0,0,0-.06.58,1,1,0,0,0,.28.52.94.94,0,0,0,.51.27,1,1,0,0,0,.58-.05,1.11,1.11,0,0,0,.46-.37,1,1,0,0,0-.84-1.57Z"/>
      <path class="cls-3" d="M236.26,155.22a1,1,0,0,0-.56.17,1,1,0,0,0-.37.45,1,1,0,0,0-.06.58,1,1,0,0,0,.79.79,1,1,0,0,0,.58-.05,1.06,1.06,0,0,0,.46-.38,1,1,0,0,0,.17-.55,1,1,0,0,0-.3-.72A1,1,0,0,0,236.26,155.22Z"/>
    </g>
    <g>
      <path class="cls-3" d="M202.64,180.11a4.83,4.83,0,0,0-4.73,5.76,4.93,4.93,0,0,0,1.32,2.47,4.82,4.82,0,1,0,3.41-8.23Zm0,7.71a2.9,2.9,0,0,1-2.84-3.46,2.89,2.89,0,0,1,5.24-1,2.9,2.9,0,0,1,.49,1.61,2.9,2.9,0,0,1-2.89,2.89Z"/>
      <path class="cls-3" d="M211.27,184.93l3.58-3.47-3.12-5.4L207,177.4l-1.25-5h-6.27l-1.21,5-4.72-1.34-3.12,5.41,3.6,3.48-3.6,3.49,3.12,5.41,4.72-1.35,1.23,5h6.27l1.23-5,4.76,1.36,3.12-5.4Zm-.44,6.65-4.21-1.21-1.29.9-1.06,4.26H201L200,191.29l-1.24-.92-4.24,1.21-1.62-2.8,3.16-3v-1.56l-3.16-3.05,1.62-2.81,4.24,1.22,1.25-1,1.05-4.21h3.24l1.06,4.23,1.25,1,4.25-1.24,1.62,2.81-3.16,3.05.05,1.55,3.13,3.05Z"/>
    </g>
    <g>
      <path class="cls-3" d="M241.09,174.93,238,172.57l-.59-.17H223.46l-.57.18-3.19,2.36-.39.78V194l.26.67,2.33,2.46.71.3h15.25l.66-.26,2.64-2.46.31-.71V175.72Zm-1.55,12.25-2.15,2.38H223.74l-2.5-2.22v-3.59l1.77,1.57h15.23l1.3-1.45ZM223,179.41h15.21l1.32-1.35V181l-2.15,2.38H223.74l-2.5-2.22v-3.33Zm.77-5.09h13.31l2,1.5-1.64,1.68H223.74l-1.93-1.72Zm13.71,21.21H223l-1.78-1.89v-3.72l1.77,1.57h15.22l1.3-1.45v3.56Z"/>
      <path class="cls-3" d="M236.26,182.35a1,1,0,0,0,.56-.17,1.08,1.08,0,0,0,.37-.45,1.19,1.19,0,0,0,.06-.59,1,1,0,0,0-.28-.51,1,1,0,0,0-.52-.28,1,1,0,0,0-.58.06,1.08,1.08,0,0,0-.45.37,1,1,0,0,0-.17.56,1.09,1.09,0,0,0,.08.39,1,1,0,0,0,.21.32,1,1,0,0,0,.33.22A1,1,0,0,0,236.26,182.35Z"/>
      <path class="cls-3" d="M236.26,186.37a1,1,0,0,0-.56.17,1,1,0,0,0-.37.45,1,1,0,0,0-.06.59,1,1,0,0,0,.79.79,1,1,0,0,0,.58-.06,1.11,1.11,0,0,0,.46-.37,1,1,0,0,0,.17-.56,1,1,0,0,0-1-1Z"/>
      <path class="cls-3" d="M236.26,192.4a1,1,0,0,0-.56.17,1,1,0,0,0-.37.45,1,1,0,0,0-.06.59,1,1,0,0,0,1.37.73,1.11,1.11,0,0,0,.46-.37,1,1,0,0,0,.17-.56,1,1,0,0,0-1-1Z"/>
    </g>
    <g>
      <path class="cls-3" d="M229.87,235.32H209.61l-1,1v24.21l1,1h20.26l1-1V236.34Zm-1,24.22H210.62V237.35h18.24Z"/>
      <path class="cls-3" d="M219.67,239.74h-6.76v2h6.76Z"/>
      <path class="cls-3" d="M226.51,244h-13.6v2h13.6Z"/>
      <path class="cls-3" d="M226.51,248.21h-13.6v2h13.6Z"/>
    </g>
    <path class="cls-3" d="M310.72,93h-17l-.92.92v7.78c0,9.94,8.06,14.63,9,15.14h.9c.92-.51,9-5.2,9-15.14V93.87Zm-16.05,8.7V94.79h6.64v19.49A15.59,15.59,0,0,1,294.67,101.65Zm15.13,0a15.56,15.56,0,0,1-6.64,12.63V94.79h6.64Z"/>
    <path class="cls-3" d="M260.14,63.41l.94-.94V56.79l-.94-.95h-4v-4.7l-.94-1H235.54l-.95,1v5.68l.95.94h4v3.79h-4l-.95,1v5.67l.95,1h4v4.73l.94,1h19.69l.94-1V68.17l-.94-.94h-4V63.44Zm-.95-1.89h-7.95V57.76h7.95Zm-4.92-9.43v3.78h-8V52.09Zm-17.79,0h8v3.78h-8Zm4.92,5.67h7.95v3.79H241.4Zm-4.92,5.65h8V67.2h-8Zm4.92,9.49V69.12h7.95V72.9Zm17.79,0h-7.95V69.12h7.95Zm-4.91-5.67h-8V63.44h8Z"/>
  </g>
</svg>
